<svg width="236" height="76" viewBox="0 0 236 76" fill="none" xmlns="http://www.w3.org/2000/svg">
<ellipse cx="28.5" cy="21" rx="23.5" ry="21" fill="#142BFA"/>
<ellipse cx="118.5" cy="21" rx="23.5" ry="21" fill="#EBAC0A"/>
<ellipse cx="204.5" cy="21" rx="23.5" ry="21" fill="#FC0606"/>
<path d="M16.374 66.9326H12.4365V71H10.3857V61.0469H16.8662V62.708H12.4365V65.2783H16.374V66.9326ZM22.2051 70.248C21.7174 70.8405 21.043 71.1367 20.1816 71.1367C19.3887 71.1367 18.7826 70.9089 18.3633 70.4531C17.9486 69.9974 17.7367 69.3298 17.7275 68.4502V63.6035H19.7031V68.3818C19.7031 69.152 20.054 69.5371 20.7559 69.5371C21.4258 69.5371 21.8861 69.3047 22.1367 68.8398V63.6035H24.1191V71H22.2598L22.2051 70.248ZM27.4277 63.6035L27.4893 64.458C28.0179 63.7972 28.7266 63.4668 29.6152 63.4668C30.3991 63.4668 30.9824 63.6969 31.3652 64.1572C31.748 64.6175 31.944 65.3057 31.9531 66.2217V71H29.9775V66.2695C29.9775 65.8503 29.8864 65.5472 29.7041 65.3604C29.5218 65.1689 29.2188 65.0732 28.7949 65.0732C28.2389 65.0732 27.8219 65.3102 27.5439 65.7842V71H25.5684V63.6035H27.4277ZM33.1494 67.2471C33.1494 66.0941 33.4069 65.1758 33.9219 64.4922C34.4414 63.8086 35.1501 63.4668 36.0479 63.4668C36.7679 63.4668 37.3626 63.7357 37.832 64.2734V60.5H39.8145V71H38.0303L37.9346 70.2139C37.4424 70.8291 36.8089 71.1367 36.0342 71.1367C35.1637 71.1367 34.4642 70.7949 33.9355 70.1113C33.4115 69.4232 33.1494 68.4684 33.1494 67.2471ZM35.125 67.3906C35.125 68.0833 35.2458 68.6143 35.4873 68.9834C35.7288 69.3525 36.0798 69.5371 36.54 69.5371C37.1507 69.5371 37.5814 69.2796 37.832 68.7646V65.8457C37.5859 65.3307 37.1598 65.0732 36.5537 65.0732C35.6012 65.0732 35.125 65.8457 35.125 67.3906ZM41.0381 67.2334C41.0381 66.4997 41.1794 65.8457 41.4619 65.2715C41.7445 64.6973 42.1501 64.2529 42.6787 63.9385C43.2119 63.624 43.8294 63.4668 44.5312 63.4668C45.5293 63.4668 46.3428 63.7721 46.9717 64.3828C47.6051 64.9935 47.9583 65.8229 48.0312 66.8711L48.0449 67.377C48.0449 68.5117 47.7282 69.4232 47.0947 70.1113C46.4613 70.7949 45.6113 71.1367 44.5449 71.1367C43.4785 71.1367 42.6263 70.7949 41.9883 70.1113C41.3548 69.4277 41.0381 68.498 41.0381 67.3223V67.2334ZM43.0137 67.377C43.0137 68.0788 43.1458 68.6165 43.4102 68.9902C43.6745 69.3594 44.0527 69.5439 44.5449 69.5439C45.0234 69.5439 45.3971 69.3617 45.666 68.9971C45.9349 68.6279 46.0693 68.04 46.0693 67.2334C46.0693 66.5452 45.9349 66.012 45.666 65.6338C45.3971 65.2555 45.0189 65.0664 44.5312 65.0664C44.0482 65.0664 43.6745 65.2555 43.4102 65.6338C43.1458 66.0075 43.0137 66.5885 43.0137 67.377Z" fill="black"/>
<path d="M90.1953 66.6865H86.2578V69.3525H90.8789V71H84.207V61.0469H90.8652V62.708H86.2578V65.0801H90.1953V66.6865ZM95.958 68.9561C95.958 68.7145 95.8372 68.5254 95.5957 68.3887C95.3587 68.2474 94.9759 68.1221 94.4473 68.0127C92.6882 67.6436 91.8086 66.8962 91.8086 65.7705C91.8086 65.1143 92.0798 64.5674 92.6221 64.1299C93.1689 63.6878 93.8822 63.4668 94.7617 63.4668C95.7005 63.4668 96.4502 63.6878 97.0107 64.1299C97.5758 64.5719 97.8584 65.1462 97.8584 65.8525H95.8828C95.8828 65.57 95.7917 65.3376 95.6094 65.1553C95.4271 64.9684 95.1423 64.875 94.7549 64.875C94.4222 64.875 94.1647 64.9502 93.9824 65.1006C93.8001 65.251 93.709 65.4424 93.709 65.6748C93.709 65.8936 93.8115 66.0713 94.0166 66.208C94.2262 66.3402 94.5771 66.4564 95.0693 66.5566C95.5615 66.6523 95.9762 66.7617 96.3135 66.8848C97.3571 67.2676 97.8789 67.9307 97.8789 68.874C97.8789 69.5485 97.5895 70.0954 97.0107 70.5146C96.432 70.9294 95.6846 71.1367 94.7686 71.1367C94.1488 71.1367 93.5973 71.0273 93.1143 70.8086C92.6357 70.5853 92.2598 70.2822 91.9863 69.8994C91.7129 69.512 91.5762 69.0951 91.5762 68.6484H93.4492C93.4674 68.9993 93.5973 69.2682 93.8389 69.4551C94.0804 69.6419 94.404 69.7354 94.8096 69.7354C95.1878 69.7354 95.4727 69.6647 95.6641 69.5234C95.86 69.3776 95.958 69.1885 95.958 68.9561ZM101.522 61.7852V63.6035H102.787V65.0527H101.522V68.7441C101.522 69.0176 101.575 69.2135 101.68 69.332C101.785 69.4505 101.985 69.5098 102.281 69.5098C102.5 69.5098 102.694 69.4938 102.862 69.4619V70.959C102.475 71.0775 102.076 71.1367 101.666 71.1367C100.281 71.1367 99.5742 70.4372 99.5469 69.0381V65.0527H98.4668V63.6035H99.5469V61.7852H101.522ZM108.174 71C108.083 70.8223 108.017 70.6012 107.976 70.3369C107.497 70.8701 106.875 71.1367 106.109 71.1367C105.385 71.1367 104.783 70.9271 104.305 70.5078C103.831 70.0885 103.594 69.5599 103.594 68.9219C103.594 68.138 103.883 67.5365 104.462 67.1172C105.045 66.6979 105.886 66.486 106.984 66.4814H107.894V66.0576C107.894 65.7158 107.805 65.4424 107.627 65.2373C107.454 65.0322 107.178 64.9297 106.8 64.9297C106.467 64.9297 106.205 65.0094 106.014 65.1689C105.827 65.3285 105.733 65.5472 105.733 65.8252H103.758C103.758 65.3968 103.89 65.0003 104.154 64.6357C104.419 64.2712 104.792 63.9863 105.275 63.7812C105.758 63.5716 106.301 63.4668 106.902 63.4668C107.814 63.4668 108.536 63.6969 109.069 64.1572C109.607 64.613 109.876 65.2555 109.876 66.085V69.291C109.881 69.9928 109.979 70.5238 110.17 70.8838V71H108.174ZM106.54 69.626C106.832 69.626 107.101 69.5622 107.347 69.4346C107.593 69.3024 107.775 69.127 107.894 68.9082V67.6367H107.155C106.166 67.6367 105.64 67.9785 105.576 68.6621L105.569 68.7783C105.569 69.0244 105.656 69.2272 105.829 69.3867C106.002 69.5462 106.239 69.626 106.54 69.626ZM113.246 63.6035L113.308 64.4307C113.832 63.7881 114.54 63.4668 115.434 63.4668C116.386 63.4668 117.04 63.8428 117.396 64.5947C117.915 63.8428 118.656 63.4668 119.617 63.4668C120.419 63.4668 121.016 63.7015 121.408 64.1709C121.8 64.6357 121.996 65.3376 121.996 66.2764V71H120.014V66.2832C120.014 65.8639 119.932 65.5586 119.768 65.3672C119.604 65.1712 119.314 65.0732 118.899 65.0732C118.307 65.0732 117.897 65.3558 117.669 65.9209L117.676 71H115.7V66.29C115.7 65.8617 115.616 65.5518 115.447 65.3604C115.279 65.1689 114.992 65.0732 114.586 65.0732C114.025 65.0732 113.62 65.3057 113.369 65.7705V71H111.394V63.6035H113.246ZM130.179 67.3701C130.179 68.5094 129.919 69.4232 129.399 70.1113C128.884 70.7949 128.187 71.1367 127.308 71.1367C126.56 71.1367 125.956 70.877 125.496 70.3574V73.8438H123.521V63.6035H125.353L125.421 64.3281C125.899 63.7539 126.524 63.4668 127.294 63.4668C128.205 63.4668 128.914 63.804 129.42 64.4785C129.926 65.153 130.179 66.0827 130.179 67.2676V67.3701ZM128.203 67.2266C128.203 66.5384 128.08 66.0075 127.834 65.6338C127.592 65.2601 127.239 65.0732 126.774 65.0732C126.155 65.0732 125.729 65.3102 125.496 65.7842V68.8125C125.738 69.3001 126.168 69.5439 126.788 69.5439C127.731 69.5439 128.203 68.7715 128.203 67.2266ZM135.695 71C135.604 70.8223 135.538 70.6012 135.497 70.3369C135.019 70.8701 134.396 71.1367 133.631 71.1367C132.906 71.1367 132.305 70.9271 131.826 70.5078C131.352 70.0885 131.115 69.5599 131.115 68.9219C131.115 68.138 131.405 67.5365 131.983 67.1172C132.567 66.6979 133.408 66.486 134.506 66.4814H135.415V66.0576C135.415 65.7158 135.326 65.4424 135.148 65.2373C134.975 65.0322 134.7 64.9297 134.321 64.9297C133.989 64.9297 133.727 65.0094 133.535 65.1689C133.348 65.3285 133.255 65.5472 133.255 65.8252H131.279C131.279 65.3968 131.411 65.0003 131.676 64.6357C131.94 64.2712 132.314 63.9863 132.797 63.7812C133.28 63.5716 133.822 63.4668 134.424 63.4668C135.335 63.4668 136.058 63.6969 136.591 64.1572C137.129 64.613 137.397 65.2555 137.397 66.085V69.291C137.402 69.9928 137.5 70.5238 137.691 70.8838V71H135.695ZM134.062 69.626C134.353 69.626 134.622 69.5622 134.868 69.4346C135.114 69.3024 135.297 69.127 135.415 68.9082V67.6367H134.677C133.688 67.6367 133.161 67.9785 133.098 68.6621L133.091 68.7783C133.091 69.0244 133.177 69.2272 133.351 69.3867C133.524 69.5462 133.761 69.626 134.062 69.626ZM147.118 71H145.143V63.3848L142.784 64.1162V62.5098L146.906 61.0332H147.118V71Z" fill="black"/>
<path d="M191.774 71V61.0469H195.261C196.468 61.0469 197.384 61.2793 198.009 61.7441C198.633 62.2044 198.945 62.8812 198.945 63.7744C198.945 64.262 198.82 64.6927 198.569 65.0664C198.319 65.4355 197.97 65.7067 197.523 65.8799C198.034 66.0075 198.435 66.265 198.727 66.6523C199.023 67.0397 199.171 67.5137 199.171 68.0742C199.171 69.0312 198.866 69.7559 198.255 70.248C197.644 70.7402 196.774 70.9909 195.644 71H191.774ZM193.825 66.666V69.3525H195.582C196.065 69.3525 196.441 69.2386 196.71 69.0107C196.983 68.7783 197.12 68.4593 197.12 68.0537C197.12 67.1423 196.648 66.6797 195.705 66.666H193.825ZM193.825 65.2168H195.343C196.377 65.1986 196.895 64.7861 196.895 63.9795C196.895 63.5283 196.762 63.2048 196.498 63.0088C196.238 62.8083 195.826 62.708 195.261 62.708H193.825V65.2168ZM200.278 67.2334C200.278 66.4997 200.42 65.8457 200.702 65.2715C200.985 64.6973 201.39 64.2529 201.919 63.9385C202.452 63.624 203.07 63.4668 203.771 63.4668C204.77 63.4668 205.583 63.7721 206.212 64.3828C206.845 64.9935 207.199 65.8229 207.271 66.8711L207.285 67.377C207.285 68.5117 206.968 69.4232 206.335 70.1113C205.701 70.7949 204.852 71.1367 203.785 71.1367C202.719 71.1367 201.867 70.7949 201.229 70.1113C200.595 69.4277 200.278 68.498 200.278 67.3223V67.2334ZM202.254 67.377C202.254 68.0788 202.386 68.6165 202.65 68.9902C202.915 69.3594 203.293 69.5439 203.785 69.5439C204.264 69.5439 204.637 69.3617 204.906 68.9971C205.175 68.6279 205.31 68.04 205.31 67.2334C205.31 66.5452 205.175 66.012 204.906 65.6338C204.637 65.2555 204.259 65.0664 203.771 65.0664C203.288 65.0664 202.915 65.2555 202.65 65.6338C202.386 66.0075 202.254 66.5885 202.254 67.377ZM212.658 65.4561C212.389 65.4196 212.152 65.4014 211.947 65.4014C211.2 65.4014 210.71 65.6543 210.478 66.1602V71H208.502V63.6035H210.368L210.423 64.4854C210.819 63.8063 211.368 63.4668 212.07 63.4668C212.289 63.4668 212.494 63.4964 212.686 63.5557L212.658 65.4561ZM213.171 67.2471C213.171 66.0941 213.428 65.1758 213.943 64.4922C214.463 63.8086 215.172 63.4668 216.069 63.4668C216.789 63.4668 217.384 63.7357 217.854 64.2734V60.5H219.836V71H218.052L217.956 70.2139C217.464 70.8291 216.83 71.1367 216.056 71.1367C215.185 71.1367 214.486 70.7949 213.957 70.1113C213.433 69.4232 213.171 68.4684 213.171 67.2471ZM215.146 67.3906C215.146 68.0833 215.267 68.6143 215.509 68.9834C215.75 69.3525 216.101 69.5371 216.562 69.5371C217.172 69.5371 217.603 69.2796 217.854 68.7646V65.8457C217.607 65.3307 217.181 65.0732 216.575 65.0732C215.623 65.0732 215.146 65.8457 215.146 67.3906ZM225.653 71C225.562 70.8223 225.496 70.6012 225.455 70.3369C224.977 70.8701 224.354 71.1367 223.589 71.1367C222.864 71.1367 222.263 70.9271 221.784 70.5078C221.31 70.0885 221.073 69.5599 221.073 68.9219C221.073 68.138 221.363 67.5365 221.941 67.1172C222.525 66.6979 223.366 66.486 224.464 66.4814H225.373V66.0576C225.373 65.7158 225.284 65.4424 225.106 65.2373C224.933 65.0322 224.658 64.9297 224.279 64.9297C223.947 64.9297 223.685 65.0094 223.493 65.1689C223.306 65.3285 223.213 65.5472 223.213 65.8252H221.237C221.237 65.3968 221.369 65.0003 221.634 64.6357C221.898 64.2712 222.272 63.9863 222.755 63.7812C223.238 63.5716 223.78 63.4668 224.382 63.4668C225.293 63.4668 226.016 63.6969 226.549 64.1572C227.087 64.613 227.355 65.2555 227.355 66.085V69.291C227.36 69.9928 227.458 70.5238 227.649 70.8838V71H225.653ZM224.02 69.626C224.311 69.626 224.58 69.5622 224.826 69.4346C225.072 69.3024 225.255 69.127 225.373 68.9082V67.6367H224.635C223.646 67.6367 223.119 67.9785 223.056 68.6621L223.049 68.7783C223.049 69.0244 223.135 69.2272 223.309 69.3867C223.482 69.5462 223.719 69.626 224.02 69.626Z" fill="black"/>
</svg>
