<svg width="344" height="133" viewBox="0 0 344 133" fill="none" xmlns="http://www.w3.org/2000/svg">
<path d="M306.619 59.4893V65H303.396V49.3594H309.498C310.673 49.3594 311.704 49.5742 312.592 50.0039C313.487 50.4336 314.174 51.0459 314.654 51.8408C315.134 52.6286 315.374 53.5273 315.374 54.5371C315.374 56.0697 314.848 57.2799 313.795 58.168C312.749 59.0488 311.299 59.4893 309.444 59.4893H306.619ZM306.619 56.8789H309.498C310.35 56.8789 310.998 56.6784 311.442 56.2773C311.894 55.8763 312.119 55.3034 312.119 54.5586C312.119 53.7923 311.894 53.1729 311.442 52.7002C310.991 52.2275 310.368 51.984 309.573 51.9697H306.619V56.8789ZM329.973 63.0234C329.393 63.7181 328.573 64.2588 327.513 64.6455C326.453 65.0251 325.278 65.2148 323.989 65.2148C322.636 65.2148 321.447 64.9212 320.423 64.334C319.406 63.7396 318.618 62.8802 318.06 61.7559C317.508 60.6315 317.225 59.3102 317.211 57.792V56.7285C317.211 55.1673 317.472 53.8174 317.995 52.6787C318.525 51.5329 319.284 50.6592 320.272 50.0576C321.268 49.4489 322.432 49.1445 323.764 49.1445C325.618 49.1445 327.069 49.5885 328.114 50.4766C329.16 51.3574 329.779 52.6429 329.973 54.333H326.836C326.693 53.4378 326.374 52.7826 325.88 52.3672C325.393 51.9518 324.72 51.7441 323.86 51.7441C322.765 51.7441 321.93 52.1559 321.357 52.9795C320.785 53.8031 320.494 55.0277 320.487 56.6533V57.6523C320.487 59.2923 320.799 60.5312 321.422 61.3691C322.045 62.207 322.958 62.626 324.161 62.626C325.371 62.626 326.234 62.3682 326.75 61.8525V59.1562H323.817V56.7822H329.973V63.0234Z" fill="#D51737"/>
<path d="M21.5068 63.8965C21.5068 63.2878 21.292 62.8223 20.8623 62.5C20.4326 62.1706 19.6592 61.8268 18.542 61.4688C17.4248 61.1035 16.5404 60.7454 15.8887 60.3945C14.1126 59.4349 13.2246 58.1423 13.2246 56.5166C13.2246 55.6715 13.4609 54.9196 13.9336 54.2607C14.4134 53.5947 15.0973 53.0755 15.9854 52.7031C16.8805 52.3307 17.8831 52.1445 18.9932 52.1445C20.1104 52.1445 21.1058 52.3486 21.9795 52.7568C22.8532 53.1579 23.5299 53.7272 24.0098 54.4648C24.4967 55.2025 24.7402 56.0404 24.7402 56.9785H21.5176C21.5176 56.2624 21.292 55.7074 20.8408 55.3135C20.3896 54.9124 19.7559 54.7119 18.9395 54.7119C18.1517 54.7119 17.5394 54.8802 17.1025 55.2168C16.6657 55.5462 16.4473 55.9831 16.4473 56.5273C16.4473 57.0358 16.7015 57.4619 17.21 57.8057C17.7256 58.1494 18.4811 58.4717 19.4766 58.7725C21.3099 59.3239 22.6455 60.0078 23.4834 60.8242C24.3213 61.6406 24.7402 62.6576 24.7402 63.875C24.7402 65.2285 24.2282 66.292 23.2041 67.0654C22.18 67.8317 20.8014 68.2148 19.0684 68.2148C17.8652 68.2148 16.7695 67.9964 15.7812 67.5596C14.793 67.1156 14.0374 66.5104 13.5146 65.7441C12.999 64.9779 12.7412 64.0898 12.7412 63.0801H15.9746C15.9746 64.806 17.0059 65.6689 19.0684 65.6689C19.8346 65.6689 20.4326 65.515 20.8623 65.207C21.292 64.8919 21.5068 64.4551 21.5068 63.8965ZM36.3418 61.6084H30.1543V68H26.9316V52.3594H37.1152V54.9697H30.1543V59.0088H36.3418V61.6084Z" fill="#D51737"/>
<path d="M239.507 58.8965C239.507 58.2878 239.292 57.8223 238.862 57.5C238.433 57.1706 237.659 56.8268 236.542 56.4688C235.425 56.1035 234.54 55.7454 233.889 55.3945C232.113 54.4349 231.225 53.1423 231.225 51.5166C231.225 50.6715 231.461 49.9196 231.934 49.2607C232.413 48.5947 233.097 48.0755 233.985 47.7031C234.881 47.3307 235.883 47.1445 236.993 47.1445C238.11 47.1445 239.106 47.3486 239.979 47.7568C240.853 48.1579 241.53 48.7272 242.01 49.4648C242.497 50.2025 242.74 51.0404 242.74 51.9785H239.518C239.518 51.2624 239.292 50.7074 238.841 50.3135C238.39 49.9124 237.756 49.7119 236.939 49.7119C236.152 49.7119 235.539 49.8802 235.103 50.2168C234.666 50.5462 234.447 50.9831 234.447 51.5273C234.447 52.0358 234.701 52.4619 235.21 52.8057C235.726 53.1494 236.481 53.4717 237.477 53.7725C239.31 54.3239 240.646 55.0078 241.483 55.8242C242.321 56.6406 242.74 57.6576 242.74 58.875C242.74 60.2285 242.228 61.292 241.204 62.0654C240.18 62.8317 238.801 63.2148 237.068 63.2148C235.865 63.2148 234.77 62.9964 233.781 62.5596C232.793 62.1156 232.037 61.5104 231.515 60.7441C230.999 59.9779 230.741 59.0898 230.741 58.0801H233.975C233.975 59.806 235.006 60.6689 237.068 60.6689C237.835 60.6689 238.433 60.515 238.862 60.207C239.292 59.8919 239.507 59.4551 239.507 58.8965ZM257.307 61.0234C256.727 61.7181 255.907 62.2588 254.847 62.6455C253.787 63.0251 252.612 63.2148 251.323 63.2148C249.97 63.2148 248.781 62.9212 247.757 62.334C246.74 61.7396 245.952 60.8802 245.394 59.7559C244.842 58.6315 244.559 57.3102 244.545 55.792V54.7285C244.545 53.1673 244.806 51.8174 245.329 50.6787C245.859 49.5329 246.618 48.6592 247.606 48.0576C248.602 47.4489 249.766 47.1445 251.098 47.1445C252.952 47.1445 254.403 47.5885 255.448 48.4766C256.494 49.3574 257.113 50.6429 257.307 52.333H254.17C254.027 51.4378 253.708 50.7826 253.214 50.3672C252.727 49.9518 252.054 49.7441 251.194 49.7441C250.099 49.7441 249.264 50.1559 248.691 50.9795C248.118 51.8031 247.828 53.0277 247.821 54.6533V55.6523C247.821 57.2923 248.133 58.5312 248.756 59.3691C249.379 60.207 250.292 60.626 251.495 60.626C252.705 60.626 253.568 60.3682 254.084 59.8525V57.1562H251.151V54.7822H257.307V61.0234Z" fill="#D51737"/>
<path d="M164.619 57.4893V63H161.396V47.3594H167.498C168.673 47.3594 169.704 47.5742 170.592 48.0039C171.487 48.4336 172.174 49.0459 172.654 49.8408C173.134 50.6286 173.374 51.5273 173.374 52.5371C173.374 54.0697 172.848 55.2799 171.795 56.168C170.749 57.0488 169.299 57.4893 167.444 57.4893H164.619ZM164.619 54.8789H167.498C168.35 54.8789 168.998 54.6784 169.442 54.2773C169.894 53.8763 170.119 53.3034 170.119 52.5586C170.119 51.7923 169.894 51.1729 169.442 50.7002C168.991 50.2275 168.368 49.984 167.573 49.9697H164.619V54.8789ZM185.008 56.6084H178.82V63H175.598V47.3594H185.781V49.9697H178.82V54.0088H185.008V56.6084Z" fill="#D51737"/>
<path d="M101.675 59.79C101.553 61.473 100.93 62.7979 99.8057 63.7646C98.6885 64.7314 97.2132 65.2148 95.3799 65.2148C93.3747 65.2148 91.7956 64.5417 90.6426 63.1953C89.4967 61.8418 88.9238 59.987 88.9238 57.6309V56.6748C88.9238 55.1709 89.1888 53.846 89.7188 52.7002C90.2487 51.5544 91.0042 50.6771 91.9854 50.0684C92.9736 49.4525 94.1195 49.1445 95.4229 49.1445C97.2275 49.1445 98.6813 49.6279 99.7842 50.5947C100.887 51.5615 101.524 52.9186 101.696 54.666H98.4736C98.3949 53.6562 98.112 52.9258 97.625 52.4746C97.1452 52.0163 96.4111 51.7871 95.4229 51.7871C94.3486 51.7871 93.543 52.1738 93.0059 52.9473C92.4759 53.7135 92.2038 54.9059 92.1895 56.5244V57.7061C92.1895 59.3962 92.4437 60.6315 92.9521 61.4121C93.4678 62.1927 94.277 62.583 95.3799 62.583C96.3753 62.583 97.1165 62.3574 97.6035 61.9062C98.0977 61.4479 98.3805 60.7425 98.4521 59.79H101.675Z" fill="#D51737"/>
<path d="M148.952 14V3.33594H152.688C153.981 3.33594 154.963 3.58496 155.632 4.08301C156.301 4.57617 156.635 5.30127 156.635 6.2583C156.635 6.78076 156.501 7.24219 156.232 7.64258C155.964 8.03809 155.59 8.32861 155.112 8.51416C155.659 8.65088 156.088 8.92676 156.401 9.3418C156.718 9.75684 156.877 10.2646 156.877 10.8652C156.877 11.8906 156.55 12.667 155.896 13.1943C155.241 13.7217 154.309 13.9902 153.098 14H148.952ZM151.149 9.35645V12.2349H153.032C153.549 12.2349 153.952 12.1128 154.24 11.8687C154.533 11.6196 154.68 11.2778 154.68 10.8433C154.68 9.8667 154.174 9.37109 153.164 9.35645H151.149ZM151.149 7.80371H152.775C153.884 7.78418 154.438 7.34229 154.438 6.47803C154.438 5.99463 154.296 5.64795 154.013 5.43799C153.735 5.22314 153.293 5.11572 152.688 5.11572H151.149V7.80371ZM162.985 14C162.888 13.8096 162.817 13.5728 162.773 13.2896C162.26 13.8608 161.594 14.1465 160.773 14.1465C159.997 14.1465 159.353 13.9219 158.84 13.4727C158.332 13.0234 158.078 12.457 158.078 11.7734C158.078 10.9336 158.388 10.2891 159.008 9.83984C159.633 9.39062 160.534 9.16357 161.711 9.15869H162.685V8.70459C162.685 8.33838 162.59 8.04541 162.399 7.82568C162.214 7.60596 161.918 7.49609 161.513 7.49609C161.157 7.49609 160.876 7.58154 160.671 7.75244C160.471 7.92334 160.371 8.15771 160.371 8.45557H158.254C158.254 7.99658 158.396 7.57178 158.679 7.18115C158.962 6.79053 159.362 6.48535 159.88 6.26562C160.397 6.04102 160.979 5.92871 161.623 5.92871C162.6 5.92871 163.374 6.17529 163.945 6.66846C164.521 7.15674 164.809 7.84521 164.809 8.73389V12.1689C164.814 12.9209 164.919 13.4897 165.124 13.8755V14H162.985ZM161.235 12.5278C161.547 12.5278 161.835 12.4595 162.099 12.3228C162.363 12.1812 162.558 11.9932 162.685 11.7588V10.3965H161.894C160.834 10.3965 160.271 10.7627 160.202 11.4951L160.195 11.6196C160.195 11.8833 160.288 12.1006 160.473 12.2715C160.659 12.4424 160.913 12.5278 161.235 12.5278ZM168.383 6.0752L168.449 6.99072C169.016 6.28271 169.775 5.92871 170.727 5.92871C171.567 5.92871 172.192 6.17529 172.602 6.66846C173.012 7.16162 173.222 7.89893 173.232 8.88037V14H171.115V8.93164C171.115 8.48242 171.018 8.15771 170.822 7.95752C170.627 7.75244 170.302 7.6499 169.848 7.6499C169.252 7.6499 168.806 7.90381 168.508 8.41162V14H166.391V6.0752H168.383ZM178.139 12.4399C178.53 12.4399 178.847 12.3325 179.091 12.1177C179.335 11.9028 179.462 11.6172 179.472 11.2607H181.457C181.452 11.7979 181.306 12.291 181.018 12.7402C180.729 13.1846 180.334 13.5312 179.831 13.7803C179.333 14.0244 178.781 14.1465 178.176 14.1465C177.043 14.1465 176.149 13.7876 175.495 13.0698C174.841 12.3472 174.514 11.3511 174.514 10.0815V9.94238C174.514 8.72168 174.838 7.74756 175.488 7.02002C176.137 6.29248 177.028 5.92871 178.161 5.92871C179.152 5.92871 179.946 6.21191 180.542 6.77832C181.142 7.33984 181.447 8.08936 181.457 9.02686H179.472C179.462 8.6167 179.335 8.28467 179.091 8.03076C178.847 7.77197 178.525 7.64258 178.125 7.64258C177.631 7.64258 177.258 7.82324 177.004 8.18457C176.755 8.54102 176.63 9.12207 176.63 9.92773V10.1475C176.63 10.9629 176.755 11.5488 177.004 11.9053C177.253 12.2617 177.631 12.4399 178.139 12.4399ZM182.336 9.96436C182.336 9.17822 182.487 8.47754 182.79 7.8623C183.093 7.24707 183.527 6.771 184.094 6.43408C184.665 6.09717 185.327 5.92871 186.079 5.92871C187.148 5.92871 188.02 6.25586 188.693 6.91016C189.372 7.56445 189.75 8.45312 189.829 9.57617L189.843 10.1182C189.843 11.334 189.504 12.3105 188.825 13.0479C188.146 13.7803 187.236 14.1465 186.093 14.1465C184.951 14.1465 184.038 13.7803 183.354 13.0479C182.675 12.3154 182.336 11.3193 182.336 10.0596V9.96436ZM184.453 10.1182C184.453 10.8701 184.594 11.4463 184.877 11.8467C185.161 12.2422 185.566 12.4399 186.093 12.4399C186.606 12.4399 187.006 12.2446 187.294 11.854C187.583 11.4585 187.727 10.8286 187.727 9.96436C187.727 9.22705 187.583 8.65576 187.294 8.25049C187.006 7.84521 186.601 7.64258 186.079 7.64258C185.561 7.64258 185.161 7.84521 184.877 8.25049C184.594 8.65088 184.453 9.27344 184.453 10.1182Z" fill="#D51737"/>
<ellipse cx="26" cy="107.5" rx="26" ry="25.5" fill="#D51737"/>
<path d="M37.4766 109.477H28.4766V118.477H25.5234V109.477H16.5234V106.523H25.5234V97.5234H28.4766V106.523H37.4766V109.477Z" fill="white"/>
<ellipse cx="99" cy="107.5" rx="26" ry="25.5" fill="#D51737"/>
<path d="M110.477 109.477H101.477V118.477H98.5234V109.477H89.5234V106.523H98.5234V97.5234H101.477V106.523H110.477V109.477Z" fill="white"/>
<ellipse cx="172" cy="107.5" rx="26" ry="25.5" fill="#D51737"/>
<path d="M183.477 109.477H174.477V118.477H171.523V109.477H162.523V106.523H171.523V97.5234H174.477V106.523H183.477V109.477Z" fill="white"/>
<ellipse cx="244" cy="107.5" rx="26" ry="25.5" fill="#D51737"/>
<path d="M255.477 109.477H246.477V118.477H243.523V109.477H234.523V106.523H243.523V97.5234H246.477V106.523H255.477V109.477Z" fill="white"/>
<ellipse cx="318" cy="107.5" rx="26" ry="25.5" fill="#D51737"/>
<path d="M329.477 109.477H320.477V118.477H317.523V109.477H308.523V106.523H317.523V97.5234H320.477V106.523H329.477V109.477Z" fill="white"/>
</svg>
