<svg width="128" height="122" viewBox="0 0 128 122" fill="none" xmlns="http://www.w3.org/2000/svg">
<g clip-path="url(#clip0_871:3)">
<path d="M15.7669 8.95801H113.161L128 80.81L86.2601 122L42.2019 121.544L0 80.81" fill="#2B2A29"/>
<path d="M61.8806 12.7972V54.1749L44.5031 35.8322V47.3497L61.8806 64.8392V88.3007L44.5031 71.6644L44.0793 117.734L5.50977 79.7693L19.9204 12.7972H61.8806Z" fill="#F38421"/>
<path d="M66.543 12.7972V118.161H84.3443L122.702 79.556C121.079 72.3768 119.451 65.1933 117.828 58.014C110.059 58.014 102.285 58.014 94.5165 58.014C94.5165 65.2658 94.5165 72.5175 94.5165 79.7693C94.3766 79.7693 94.2325 79.7693 94.0926 79.7693C90.7019 79.7693 87.3112 79.7693 83.9205 79.7693C83.9205 68.9642 83.9205 58.1548 83.9205 47.3497H115.709L108.927 12.7972H66.543Z" fill="#F38421"/>
</g>
<defs>
<clipPath id="clip0_871:3">
<rect width="128" height="122" fill="white"/>
</clipPath>
</defs>
</svg>
