<svg width="341" height="77" viewBox="0 0 341 77" fill="none" xmlns="http://www.w3.org/2000/svg">
<rect width="341" height="77" rx="8" fill="#E00000"/>
<line x1="172.5" y1="15" x2="172.5" y2="63" stroke="white" stroke-width="3"/>
<path d="M233.441 29.0928H226.878V36H224.815V20.3594H234.505V22.0566H226.878V27.4062H233.441V29.0928ZM241.251 36.2148C239.675 36.2148 238.394 35.6992 237.405 34.668C236.417 33.6296 235.923 32.2438 235.923 30.5107V30.1455C235.923 28.9925 236.141 27.9648 236.578 27.0625C237.022 26.153 237.638 25.444 238.426 24.9355C239.221 24.4199 240.08 24.1621 241.004 24.1621C242.515 24.1621 243.689 24.6598 244.527 25.6553C245.365 26.6507 245.784 28.0758 245.784 29.9307V30.7578H237.91C237.939 31.9036 238.272 32.8311 238.909 33.54C239.554 34.2419 240.37 34.5928 241.358 34.5928C242.06 34.5928 242.655 34.4495 243.142 34.1631C243.629 33.8766 244.055 33.4971 244.42 33.0244L245.634 33.9697C244.66 35.4665 243.199 36.2148 241.251 36.2148ZM241.004 25.7949C240.202 25.7949 239.529 26.0885 238.984 26.6758C238.44 27.2559 238.104 28.0723 237.975 29.125H243.797V28.9746C243.74 27.9648 243.467 27.1842 242.98 26.6328C242.493 26.0742 241.835 25.7949 241.004 25.7949ZM252.756 34.5928C253.465 34.5928 254.084 34.3779 254.614 33.9482C255.144 33.5186 255.438 32.9814 255.495 32.3369H257.375C257.339 33.0029 257.11 33.6367 256.688 34.2383C256.265 34.8398 255.699 35.3197 254.99 35.6777C254.288 36.0358 253.544 36.2148 252.756 36.2148C251.173 36.2148 249.913 35.6885 248.975 34.6357C248.044 33.5758 247.578 32.1292 247.578 30.2959V29.9629C247.578 28.8314 247.786 27.8252 248.201 26.9443C248.617 26.0635 249.211 25.3796 249.984 24.8926C250.765 24.4056 251.685 24.1621 252.745 24.1621C254.049 24.1621 255.13 24.5524 255.989 25.333C256.856 26.1136 257.318 27.127 257.375 28.373H255.495C255.438 27.6211 255.151 27.0052 254.636 26.5254C254.127 26.0384 253.497 25.7949 252.745 25.7949C251.735 25.7949 250.951 26.1602 250.393 26.8906C249.841 27.6139 249.565 28.6631 249.565 30.0381V30.4141C249.565 31.7533 249.841 32.7845 250.393 33.5078C250.944 34.2311 251.732 34.5928 252.756 34.5928ZM261.597 25.7842C262.478 24.7028 263.623 24.1621 265.034 24.1621C267.491 24.1621 268.729 25.5479 268.751 28.3193V36H266.764V28.3086C266.757 27.4707 266.563 26.8512 266.184 26.4502C265.811 26.0492 265.228 25.8486 264.433 25.8486C263.788 25.8486 263.222 26.0205 262.735 26.3643C262.248 26.708 261.869 27.1592 261.597 27.7178V36H259.609V19.5H261.597V25.7842ZM278.902 36C278.788 35.7708 278.695 35.3626 278.623 34.7754C277.699 35.735 276.596 36.2148 275.314 36.2148C274.169 36.2148 273.227 35.8926 272.489 35.248C271.759 34.5964 271.394 33.7728 271.394 32.7773C271.394 31.5671 271.852 30.6289 272.769 29.9629C273.692 29.2897 274.989 28.9531 276.657 28.9531H278.591V28.04C278.591 27.3454 278.383 26.7939 277.968 26.3857C277.552 25.9704 276.94 25.7627 276.131 25.7627C275.422 25.7627 274.827 25.9417 274.348 26.2998C273.868 26.6579 273.628 27.0911 273.628 27.5996H271.63C271.63 27.0195 271.834 26.4609 272.242 25.9238C272.658 25.3796 273.216 24.9499 273.918 24.6348C274.627 24.3197 275.404 24.1621 276.249 24.1621C277.588 24.1621 278.637 24.4987 279.396 25.1719C280.156 25.8379 280.549 26.7581 280.578 27.9326V33.2822C280.578 34.3493 280.714 35.1979 280.986 35.8281V36H278.902ZM275.604 34.4854C276.228 34.4854 276.818 34.3242 277.377 34.002C277.936 33.6797 278.34 33.2607 278.591 32.7451V30.3604H277.033C274.598 30.3604 273.381 31.0729 273.381 32.498C273.381 33.1211 273.589 33.6081 274.004 33.959C274.419 34.3099 274.953 34.4854 275.604 34.4854ZM293.974 36.2148C292.398 36.2148 291.116 35.6992 290.128 34.668C289.14 33.6296 288.646 32.2438 288.646 30.5107V30.1455C288.646 28.9925 288.864 27.9648 289.301 27.0625C289.745 26.153 290.361 25.444 291.148 24.9355C291.943 24.4199 292.803 24.1621 293.727 24.1621C295.238 24.1621 296.412 24.6598 297.25 25.6553C298.088 26.6507 298.507 28.0758 298.507 29.9307V30.7578H290.633C290.661 31.9036 290.994 32.8311 291.632 33.54C292.276 34.2419 293.093 34.5928 294.081 34.5928C294.783 34.5928 295.377 34.4495 295.864 34.1631C296.351 33.8766 296.777 33.4971 297.143 33.0244L298.356 33.9697C297.382 35.4665 295.922 36.2148 293.974 36.2148ZM293.727 25.7949C292.924 25.7949 292.251 26.0885 291.707 26.6758C291.163 27.2559 290.826 28.0723 290.697 29.125H296.52V28.9746C296.462 27.9648 296.19 27.1842 295.703 26.6328C295.216 26.0742 294.557 25.7949 293.727 25.7949ZM302.686 24.377L302.739 25.666C303.591 24.6634 304.741 24.1621 306.188 24.1621C307.813 24.1621 308.92 24.7852 309.507 26.0312C309.894 25.4727 310.395 25.0215 311.011 24.6777C311.634 24.334 312.368 24.1621 313.213 24.1621C315.762 24.1621 317.059 25.512 317.102 28.2119V36H315.114V28.3301C315.114 27.4993 314.924 26.8799 314.545 26.4717C314.165 26.0563 313.528 25.8486 312.633 25.8486C311.895 25.8486 311.283 26.0706 310.796 26.5146C310.309 26.9515 310.026 27.5423 309.947 28.2871V36H307.949V28.3838C307.949 26.6937 307.122 25.8486 305.468 25.8486C304.164 25.8486 303.273 26.4036 302.793 27.5137V36H300.806V24.377H302.686Z" fill="white"/>
<path d="M244.855 59H233.16V56.6797L238.68 50.7969C239.438 49.9688 239.996 49.2461 240.355 48.6289C240.723 48.0117 240.906 47.4258 240.906 46.8711C240.906 46.1133 240.715 45.5195 240.332 45.0898C239.949 44.6523 239.402 44.4336 238.691 44.4336C237.926 44.4336 237.32 44.6992 236.875 45.2305C236.438 45.7539 236.219 46.4453 236.219 47.3047H232.82C232.82 46.2656 233.066 45.3164 233.559 44.457C234.059 43.5977 234.762 42.9258 235.668 42.4414C236.574 41.9492 237.602 41.7031 238.75 41.7031C240.508 41.7031 241.871 42.125 242.84 42.9688C243.816 43.8125 244.305 45.0039 244.305 46.543C244.305 47.3867 244.086 48.2461 243.648 49.1211C243.211 49.9961 242.461 51.0156 241.398 52.1797L237.52 56.2695H244.855V59ZM253.281 59V41.9375H258.531C260.031 41.9375 261.371 42.2773 262.551 42.957C263.738 43.6289 264.664 44.5898 265.328 45.8398C265.992 47.082 266.324 48.4961 266.324 50.082V50.8672C266.324 52.4531 265.996 53.8633 265.34 55.0977C264.691 56.332 263.773 57.2891 262.586 57.9688C261.398 58.6484 260.059 58.9922 258.566 59H253.281ZM256.797 44.7852V56.1758H258.496C259.871 56.1758 260.922 55.7266 261.648 54.8281C262.375 53.9297 262.746 52.6445 262.762 50.9727V50.0703C262.762 48.3359 262.402 47.0234 261.684 46.1328C260.965 45.2344 259.914 44.7852 258.531 44.7852H256.797ZM272.629 59H269.113V41.9375H272.629V59ZM285.742 55.4844H279.578L278.406 59H274.668L281.02 41.9375H284.277L290.664 59H286.926L285.742 55.4844ZM280.527 52.6367H284.793L282.648 46.25L280.527 52.6367ZM301.105 54.5234C301.105 53.8594 300.871 53.3516 300.402 53C299.934 52.6406 299.09 52.2656 297.871 51.875C296.652 51.4766 295.688 51.0859 294.977 50.7031C293.039 49.6562 292.07 48.2461 292.07 46.4727C292.07 45.5508 292.328 44.7305 292.844 44.0117C293.367 43.2852 294.113 42.7188 295.082 42.3125C296.059 41.9062 297.152 41.7031 298.363 41.7031C299.582 41.7031 300.668 41.9258 301.621 42.3711C302.574 42.8086 303.312 43.4297 303.836 44.2344C304.367 45.0391 304.633 45.9531 304.633 46.9766H301.117C301.117 46.1953 300.871 45.5898 300.379 45.1602C299.887 44.7227 299.195 44.5039 298.305 44.5039C297.445 44.5039 296.777 44.6875 296.301 45.0547C295.824 45.4141 295.586 45.8906 295.586 46.4844C295.586 47.0391 295.863 47.5039 296.418 47.8789C296.98 48.2539 297.805 48.6055 298.891 48.9336C300.891 49.5352 302.348 50.2812 303.262 51.1719C304.176 52.0625 304.633 53.1719 304.633 54.5C304.633 55.9766 304.074 57.1367 302.957 57.9805C301.84 58.8164 300.336 59.2344 298.445 59.2344C297.133 59.2344 295.938 58.9961 294.859 58.5195C293.781 58.0352 292.957 57.375 292.387 56.5391C291.824 55.7031 291.543 54.7344 291.543 53.6328H295.07C295.07 55.5156 296.195 56.457 298.445 56.457C299.281 56.457 299.934 56.2891 300.402 55.9531C300.871 55.6094 301.105 55.1328 301.105 54.5234Z" fill="white"/>
<g clip-path="url(#clip0)">
<path d="M212.759 29.3599H204.258V28.2949C204.258 23.7599 199.957 24.0259 199.957 24.0259H197.923C193.39 24.0259 193.624 28.3269 193.624 28.3269V29.3599H185.09C182.921 29.3599 183 31.4939 183 31.4939V35.6629C183 35.6629 192.101 38.9749 198.914 38.9749C206.358 38.9749 214.959 35.6309 214.959 35.6309V31.4939C214.959 29.2599 212.759 29.3599 212.759 29.3599ZM196.494 28.2059C196.494 26.0719 198.999 26.0389 198.999 26.0389C201.542 26.0389 201.464 28.2389 201.464 28.2389V29.3069H196.494V28.2059ZM201.624 38.1819L196.337 38.1849V36.1469H201.624V38.1819Z" fill="white"/>
<path d="M214.959 47.8028V37.1688C214.959 37.1688 208.035 40.3568 198.867 40.3568C190.434 40.3568 183 37.0688 183 37.0688V47.8028C183 49.9698 185.056 49.9368 185.056 49.9368H212.792C215.092 49.9378 214.959 47.8028 214.959 47.8028ZM201.624 42.1798C201.624 42.9108 201.033 43.5028 200.304 43.5028H197.658C196.928 43.5028 196.337 42.9108 196.337 42.1798V40.8158H201.624V42.1798Z" fill="white"/>
</g>
<path d="M53.9805 57V39.9375H59.5586C61.4102 39.9375 62.8008 40.3203 63.7305 41.0859C64.668 41.8516 65.1367 42.9844 65.1367 44.4844C65.1367 45.2812 64.9102 45.9883 64.457 46.6055C64.0039 47.2148 63.3867 47.6875 62.6055 48.0234C63.5273 48.2812 64.2539 48.7734 64.7852 49.5C65.3242 50.2188 65.5938 51.0781 65.5938 52.0781C65.5938 53.6094 65.0977 54.8125 64.1055 55.6875C63.1133 56.5625 61.7109 57 59.8984 57H53.9805ZM56.2305 49.0195V55.1602H59.9453C60.9922 55.1602 61.8164 54.8906 62.418 54.3516C63.0273 53.8047 63.332 53.0547 63.332 52.1016C63.332 50.0469 62.2148 49.0195 59.9805 49.0195H56.2305ZM56.2305 47.2148H59.6289C60.6133 47.2148 61.3984 46.9688 61.9844 46.4766C62.5781 45.9844 62.875 45.3164 62.875 44.4727C62.875 43.5352 62.6016 42.8555 62.0547 42.4336C61.5078 42.0039 60.6758 41.7891 59.5586 41.7891H56.2305V47.2148ZM76.9844 52.6055C76.9844 51.8867 76.7305 51.2812 76.2227 50.7891C75.7227 50.2969 74.875 49.8516 73.6797 49.4531C72.0156 48.9453 70.8008 48.2852 70.0352 47.4727C69.2773 46.6523 68.8984 45.6133 68.8984 44.3555C68.8984 43.0742 69.2695 42.0234 70.0117 41.2031C70.7617 40.3828 71.7891 39.8945 73.0938 39.7383V37.1719H74.8398V39.75C76.1523 39.9297 77.1719 40.4805 77.8984 41.4023C78.6328 42.3242 79 43.5859 79 45.1875H76.8438C76.8438 44.0859 76.582 43.2109 76.0586 42.5625C75.5352 41.9141 74.8281 41.5898 73.9375 41.5898C73.0078 41.5898 72.2969 41.832 71.8047 42.3164C71.3125 42.793 71.0664 43.4609 71.0664 44.3203C71.0664 45.1172 71.3242 45.7539 71.8398 46.2305C72.3633 46.6992 73.2188 47.1289 74.4062 47.5195C75.6016 47.9023 76.5312 48.3281 77.1953 48.7969C77.8672 49.2578 78.3594 49.7969 78.6719 50.4141C78.9922 51.0312 79.1523 51.7539 79.1523 52.582C79.1523 53.9023 78.7539 54.9648 77.957 55.7695C77.168 56.5742 76.0586 57.0508 74.6289 57.1992V59.4375H72.8945V57.1992C71.4414 57.0664 70.3008 56.5508 69.4727 55.6523C68.6523 54.7461 68.2422 53.5195 68.2422 51.9727H70.4102C70.4102 53.0586 70.6953 53.8945 71.2656 54.4805C71.8359 55.0664 72.6445 55.3594 73.6914 55.3594C74.7148 55.3594 75.5195 55.1133 76.1055 54.6211C76.6914 54.1289 76.9844 53.457 76.9844 52.6055ZM89.8164 57H86.4297V43.9453L82.3867 45.1992V42.4453L89.4531 39.9141H89.8164V57ZM106.855 49.9453C106.855 52.3047 106.367 54.1094 105.391 55.3594C104.414 56.6094 102.984 57.2344 101.102 57.2344C99.2422 57.2344 97.8203 56.6211 96.8359 55.3945C95.8516 54.168 95.3477 52.4102 95.3242 50.1211V46.9805C95.3242 44.5977 95.8164 42.7891 96.8008 41.5547C97.793 40.3203 99.2188 39.7031 101.078 39.7031C102.938 39.7031 104.359 40.3164 105.344 41.543C106.328 42.7617 106.832 44.5156 106.855 46.8047V49.9453ZM103.469 46.5C103.469 45.0859 103.273 44.0586 102.883 43.418C102.5 42.7695 101.898 42.4453 101.078 42.4453C100.281 42.4453 99.6914 42.7539 99.3086 43.3711C98.9336 43.9805 98.7344 44.9375 98.7109 46.2422V50.3906C98.7109 51.7812 98.8984 52.8164 99.2734 53.4961C99.6562 54.168 100.266 54.5039 101.102 54.5039C101.93 54.5039 102.527 54.1797 102.895 53.5312C103.262 52.8828 103.453 51.8906 103.469 50.5547V46.5ZM120.637 49.9453C120.637 52.3047 120.148 54.1094 119.172 55.3594C118.195 56.6094 116.766 57.2344 114.883 57.2344C113.023 57.2344 111.602 56.6211 110.617 55.3945C109.633 54.168 109.129 52.4102 109.105 50.1211V46.9805C109.105 44.5977 109.598 42.7891 110.582 41.5547C111.574 40.3203 113 39.7031 114.859 39.7031C116.719 39.7031 118.141 40.3164 119.125 41.543C120.109 42.7617 120.613 44.5156 120.637 46.8047V49.9453ZM117.25 46.5C117.25 45.0859 117.055 44.0586 116.664 43.418C116.281 42.7695 115.68 42.4453 114.859 42.4453C114.062 42.4453 113.473 42.7539 113.09 43.3711C112.715 43.9805 112.516 44.9375 112.492 46.2422V50.3906C112.492 51.7812 112.68 52.8164 113.055 53.4961C113.438 54.168 114.047 54.5039 114.883 54.5039C115.711 54.5039 116.309 54.1797 116.676 53.5312C117.043 52.8828 117.234 51.8906 117.25 50.5547V46.5Z" fill="white"/>
<path d="M15.7852 19.7812V29.4492C15.7786 30.7904 15.3555 31.8874 14.5156 32.7402C13.6823 33.5931 12.5495 34.0716 11.1172 34.1758L10.6191 34.1953C9.06315 34.1953 7.82292 33.7754 6.89844 32.9355C5.97396 32.0957 5.50521 30.9401 5.49219 29.4688V19.7812H7.34766V29.4102C7.34766 30.4388 7.63086 31.2396 8.19727 31.8125C8.76367 32.3789 9.57096 32.6621 10.6191 32.6621C11.6803 32.6621 12.4909 32.3789 13.0508 31.8125C13.6172 31.2461 13.9004 30.4486 13.9004 29.4199V19.7812H15.7852ZM11.5273 15.9727H13.7148L11.0977 18.8438H9.64258L11.5273 15.9727ZM20.4238 34H18.6172V19H20.4238V34ZM25.7754 20.875V23.4336H27.748V24.8301H25.7754V31.3828C25.7754 31.806 25.8633 32.125 26.0391 32.3398C26.2148 32.5482 26.5143 32.6523 26.9375 32.6523C27.1458 32.6523 27.4323 32.6133 27.7969 32.5352V34C27.3216 34.1302 26.8594 34.1953 26.4102 34.1953C25.6029 34.1953 24.9941 33.9512 24.584 33.4629C24.1738 32.9746 23.9688 32.2812 23.9688 31.3828V24.8301H22.0449V23.4336H23.9688V20.875H25.7754ZM31.8301 34H30.0234V23.4336H31.8301V34ZM29.877 20.6309C29.877 20.3379 29.9648 20.0905 30.1406 19.8887C30.3229 19.6868 30.5898 19.5859 30.9414 19.5859C31.293 19.5859 31.5599 19.6868 31.7422 19.8887C31.9245 20.0905 32.0156 20.3379 32.0156 20.6309C32.0156 20.9238 31.9245 21.168 31.7422 21.3633C31.5599 21.5586 31.293 21.6562 30.9414 21.6562C30.5898 21.6562 30.3229 21.5586 30.1406 21.3633C29.9648 21.168 29.877 20.9238 29.877 20.6309ZM36.4297 23.4336L36.4785 24.6055C37.2533 23.694 38.2982 23.2383 39.6133 23.2383C41.0911 23.2383 42.097 23.8047 42.6309 24.9375C42.9824 24.4297 43.4382 24.0195 43.998 23.707C44.5645 23.3945 45.2318 23.2383 46 23.2383C48.3177 23.2383 49.4961 24.4655 49.5352 26.9199V34H47.7285V27.0273C47.7285 26.2721 47.556 25.709 47.2109 25.3379C46.8659 24.9603 46.2865 24.7715 45.4727 24.7715C44.8021 24.7715 44.2454 24.9733 43.8027 25.377C43.36 25.7741 43.1029 26.3112 43.0312 26.9883V34H41.2148V27.0762C41.2148 25.5397 40.4629 24.7715 38.959 24.7715C37.7741 24.7715 36.9635 25.276 36.5273 26.2852V34H34.7207V23.4336H36.4297ZM58.793 34C58.6888 33.7917 58.6042 33.4206 58.5391 32.8867C57.6992 33.7591 56.6966 34.1953 55.5312 34.1953C54.4896 34.1953 53.6335 33.9023 52.9629 33.3164C52.2988 32.724 51.9668 31.9753 51.9668 31.0703C51.9668 29.9701 52.3835 29.1172 53.2168 28.5117C54.0566 27.8997 55.235 27.5938 56.752 27.5938H58.5098V26.7637C58.5098 26.1322 58.321 25.6309 57.9434 25.2598C57.5658 24.8822 57.0091 24.6934 56.2734 24.6934C55.6289 24.6934 55.0885 24.8561 54.6523 25.1816C54.2161 25.5072 53.998 25.901 53.998 26.3633H52.1816C52.1816 25.8359 52.3672 25.3281 52.7383 24.8398C53.1159 24.3451 53.6237 23.9544 54.2617 23.668C54.9062 23.3815 55.6126 23.2383 56.3809 23.2383C57.5983 23.2383 58.5521 23.5443 59.2422 24.1562C59.9323 24.7617 60.2904 25.5983 60.3164 26.666V31.5293C60.3164 32.4993 60.4401 33.2708 60.6875 33.8438V34H58.793ZM55.7949 32.623C56.3613 32.623 56.8984 32.4766 57.4062 32.1836C57.9141 31.8906 58.2819 31.5098 58.5098 31.041V28.873H57.0938C54.8802 28.873 53.7734 29.5208 53.7734 30.8164C53.7734 31.3828 53.9622 31.8255 54.3398 32.1445C54.7174 32.4635 55.2025 32.623 55.7949 32.623ZM70.2676 28.4336V34H68.3926V19.7812H73.6367C75.1927 19.7812 76.4102 20.1784 77.2891 20.9727C78.1745 21.7669 78.6172 22.8184 78.6172 24.127C78.6172 25.5072 78.1842 26.5716 77.3184 27.3203C76.459 28.0625 75.2253 28.4336 73.6172 28.4336H70.2676ZM70.2676 26.9004H73.6367C74.6393 26.9004 75.4076 26.666 75.9414 26.1973C76.4753 25.722 76.7422 25.0384 76.7422 24.1465C76.7422 23.3001 76.4753 22.623 75.9414 22.1152C75.4076 21.6074 74.6751 21.3438 73.7441 21.3242H70.2676V26.9004ZM80.1113 28.6191C80.1113 27.584 80.3132 26.653 80.7168 25.8262C81.127 24.9993 81.6934 24.3613 82.416 23.9121C83.1452 23.4629 83.9753 23.2383 84.9062 23.2383C86.3451 23.2383 87.5072 23.7363 88.3926 24.7324C89.2845 25.7285 89.7305 27.0534 89.7305 28.707V28.834C89.7305 29.8626 89.5319 30.7871 89.1348 31.6074C88.7441 32.4212 88.181 33.056 87.4453 33.5117C86.7161 33.9674 85.8763 34.1953 84.9258 34.1953C83.4935 34.1953 82.3314 33.6973 81.4395 32.7012C80.554 31.7051 80.1113 30.3867 80.1113 28.7461V28.6191ZM81.9277 28.834C81.9277 30.0059 82.1979 30.9466 82.7383 31.6562C83.2852 32.3659 84.0143 32.7207 84.9258 32.7207C85.8438 32.7207 86.5729 32.3626 87.1133 31.6465C87.6536 30.9238 87.9238 29.9147 87.9238 28.6191C87.9238 27.4603 87.6471 26.5228 87.0938 25.8066C86.5469 25.084 85.8177 24.7227 84.9062 24.7227C84.0143 24.7227 83.2949 25.0775 82.748 25.7871C82.2012 26.4967 81.9277 27.5124 81.9277 28.834ZM93.7051 23.4336L93.7637 24.7617C94.571 23.7461 95.6257 23.2383 96.9277 23.2383C99.1608 23.2383 100.287 24.498 100.307 27.0176V34H98.5V27.0078C98.4935 26.2461 98.3177 25.6829 97.9727 25.3184C97.6341 24.9538 97.1035 24.7715 96.3809 24.7715C95.7949 24.7715 95.2806 24.9277 94.8379 25.2402C94.3952 25.5527 94.0501 25.9629 93.8027 26.4707V34H91.9961V23.4336H93.7051ZM105.482 20.875V23.4336H107.455V24.8301H105.482V31.3828C105.482 31.806 105.57 32.125 105.746 32.3398C105.922 32.5482 106.221 32.6523 106.645 32.6523C106.853 32.6523 107.139 32.6133 107.504 32.5352V34C107.029 34.1302 106.566 34.1953 106.117 34.1953C105.31 34.1953 104.701 33.9512 104.291 33.4629C103.881 32.9746 103.676 32.2812 103.676 31.3828V24.8301H101.752V23.4336H103.676V20.875H105.482ZM116.098 32.9551C115.395 33.7819 114.363 34.1953 113.002 34.1953C111.876 34.1953 111.016 33.8698 110.424 33.2188C109.838 32.5612 109.542 31.5911 109.535 30.3086V23.4336H111.342V30.2598C111.342 31.8613 111.993 32.6621 113.295 32.6621C114.675 32.6621 115.593 32.1478 116.049 31.1191V23.4336H117.855V34H116.137L116.098 32.9551ZM127.133 34C127.029 33.7917 126.944 33.4206 126.879 32.8867C126.039 33.7591 125.036 34.1953 123.871 34.1953C122.829 34.1953 121.973 33.9023 121.303 33.3164C120.639 32.724 120.307 31.9753 120.307 31.0703C120.307 29.9701 120.723 29.1172 121.557 28.5117C122.396 27.8997 123.575 27.5938 125.092 27.5938H126.85V26.7637C126.85 26.1322 126.661 25.6309 126.283 25.2598C125.906 24.8822 125.349 24.6934 124.613 24.6934C123.969 24.6934 123.428 24.8561 122.992 25.1816C122.556 25.5072 122.338 25.901 122.338 26.3633H120.521C120.521 25.8359 120.707 25.3281 121.078 24.8398C121.456 24.3451 121.964 23.9544 122.602 23.668C123.246 23.3815 123.952 23.2383 124.721 23.2383C125.938 23.2383 126.892 23.5443 127.582 24.1562C128.272 24.7617 128.63 25.5983 128.656 26.666V31.5293C128.656 32.4993 128.78 33.2708 129.027 33.8438V34H127.133ZM124.135 32.623C124.701 32.623 125.238 32.4766 125.746 32.1836C126.254 31.8906 126.622 31.5098 126.85 31.041V28.873H125.434C123.22 28.873 122.113 29.5208 122.113 30.8164C122.113 31.3828 122.302 31.8255 122.68 32.1445C123.057 32.4635 123.542 32.623 124.135 32.623ZM135.727 32.7207C136.371 32.7207 136.934 32.5254 137.416 32.1348C137.898 31.7441 138.165 31.2559 138.217 30.6699H139.926C139.893 31.2754 139.685 31.8516 139.301 32.3984C138.917 32.9453 138.402 33.3815 137.758 33.707C137.12 34.0326 136.443 34.1953 135.727 34.1953C134.288 34.1953 133.142 33.7168 132.289 32.7598C131.443 31.7962 131.02 30.4811 131.02 28.8145V28.5117C131.02 27.4831 131.208 26.5684 131.586 25.7676C131.964 24.9668 132.504 24.3451 133.207 23.9023C133.917 23.4596 134.753 23.2383 135.717 23.2383C136.902 23.2383 137.885 23.5931 138.666 24.3027C139.454 25.0124 139.874 25.9336 139.926 27.0664H138.217C138.165 26.3828 137.904 25.8229 137.436 25.3867C136.973 24.944 136.4 24.7227 135.717 24.7227C134.799 24.7227 134.086 25.0547 133.578 25.7188C133.077 26.3763 132.826 27.3301 132.826 28.5801V28.9219C132.826 30.1393 133.077 31.0768 133.578 31.7344C134.079 32.3919 134.796 32.7207 135.727 32.7207ZM136.02 34.0879L135.902 34.5957C136.898 34.7715 137.396 35.3346 137.396 36.2852C137.396 36.9167 137.136 37.4147 136.615 37.7793C136.094 38.1504 135.368 38.3359 134.438 38.3359L134.369 37.291C134.883 37.291 135.281 37.2064 135.561 37.0371C135.847 36.8678 135.99 36.6302 135.99 36.3242C135.99 36.0378 135.886 35.8262 135.678 35.6895C135.469 35.5527 135.046 35.4551 134.408 35.3965L134.721 34.0879H136.02ZM148.48 34C148.376 33.7917 148.292 33.4206 148.227 32.8867C147.387 33.7591 146.384 34.1953 145.219 34.1953C144.177 34.1953 143.321 33.9023 142.65 33.3164C141.986 32.724 141.654 31.9753 141.654 31.0703C141.654 29.9701 142.071 29.1172 142.904 28.5117C143.744 27.8997 144.923 27.5938 146.439 27.5938H148.197V26.7637C148.197 26.1322 148.008 25.6309 147.631 25.2598C147.253 24.8822 146.697 24.6934 145.961 24.6934C145.316 24.6934 144.776 24.8561 144.34 25.1816C143.904 25.5072 143.686 25.901 143.686 26.3633H141.869C141.869 25.8359 142.055 25.3281 142.426 24.8398C142.803 24.3451 143.311 23.9544 143.949 23.668C144.594 23.3815 145.3 23.2383 146.068 23.2383C147.286 23.2383 148.24 23.5443 148.93 24.1562C149.62 24.7617 149.978 25.5983 150.004 26.666V31.5293C150.004 32.4993 150.128 33.2708 150.375 33.8438V34H148.48ZM145.482 32.623C146.049 32.623 146.586 32.4766 147.094 32.1836C147.602 31.8906 147.969 31.5098 148.197 31.041V28.873H146.781C144.568 28.873 143.461 29.5208 143.461 30.8164C143.461 31.3828 143.65 31.8255 144.027 32.1445C144.405 32.4635 144.89 32.623 145.482 32.623ZM149.73 19.3125C149.73 20.0156 149.529 20.5853 149.125 21.0215C148.728 21.4577 148.23 21.6758 147.631 21.6758C147.364 21.6758 147.133 21.6432 146.938 21.5781C146.742 21.513 146.485 21.3796 146.166 21.1777C145.854 20.9759 145.626 20.8555 145.482 20.8164C145.346 20.7708 145.186 20.748 145.004 20.748C144.737 20.748 144.509 20.8522 144.32 21.0605C144.132 21.2624 144.037 21.5228 144.037 21.8418L142.826 21.7734C142.826 21.0768 143.021 20.5007 143.412 20.0449C143.809 19.5892 144.311 19.3613 144.916 19.3613C145.144 19.3613 145.349 19.3939 145.531 19.459C145.714 19.5241 145.961 19.651 146.273 19.8398C146.586 20.0286 146.824 20.1523 146.986 20.2109C147.156 20.2695 147.341 20.2988 147.543 20.2988C147.823 20.2988 148.054 20.1882 148.236 19.9668C148.425 19.7454 148.52 19.4883 148.52 19.1953L149.73 19.3125ZM152.357 28.6191C152.357 27.584 152.559 26.653 152.963 25.8262C153.373 24.9993 153.939 24.3613 154.662 23.9121C155.391 23.4629 156.221 23.2383 157.152 23.2383C158.591 23.2383 159.753 23.7363 160.639 24.7324C161.531 25.7285 161.977 27.0534 161.977 28.707V28.834C161.977 29.8626 161.778 30.7871 161.381 31.6074C160.99 32.4212 160.427 33.056 159.691 33.5117C158.962 33.9674 158.122 34.1953 157.172 34.1953C155.74 34.1953 154.577 33.6973 153.686 32.7012C152.8 31.7051 152.357 30.3867 152.357 28.7461V28.6191ZM154.174 28.834C154.174 30.0059 154.444 30.9466 154.984 31.6562C155.531 32.3659 156.26 32.7207 157.172 32.7207C158.09 32.7207 158.819 32.3626 159.359 31.6465C159.9 30.9238 160.17 29.9147 160.17 28.6191C160.17 27.4603 159.893 26.5228 159.34 25.8066C158.793 25.084 158.064 24.7227 157.152 24.7227C156.26 24.7227 155.541 25.0775 154.994 25.7871C154.447 26.4967 154.174 27.5124 154.174 28.834Z" fill="white"/>
<defs>
<clipPath id="clip0">
<rect width="31.961" height="31.961" fill="white" transform="translate(183 21)"/>
</clipPath>
</defs>
</svg>
