<svg width="254" height="199" viewBox="0 0 254 199" fill="none" xmlns="http://www.w3.org/2000/svg">
<path d="M165.26 55.6616C165.26 55.8083 165.26 55.9533 165.26 56.0966C165.26 56.175 165.26 56.2534 165.242 56.3293C165.137 57.6285 164.702 58.8794 163.981 59.9638C163.933 60.0372 163.882 60.108 163.832 60.1788C163.143 61.146 162.235 61.9347 161.181 62.4793C160.128 63.0239 158.96 63.3087 157.775 63.3101C157.606 63.3101 157.436 63.3101 157.27 63.2924C157.103 63.2746 156.959 63.2671 156.806 63.2468C155.736 63.1014 154.71 62.7257 153.798 62.1455C152.887 61.5653 152.112 60.7943 151.526 59.8854C151.485 59.8273 151.448 59.764 151.412 59.7059V59.6932C150.672 58.4794 150.282 57.084 150.284 55.6616C150.284 55.2824 150.311 54.9037 150.365 54.5285L150.405 54.2755C150.61 53.1183 151.078 52.0239 151.773 51.0773C152.468 50.1308 153.371 49.3574 154.413 48.8174L154.686 48.6833C155.571 48.2736 156.529 48.0433 157.504 48.0055C158.479 47.9678 159.452 48.1233 160.367 48.4633C160.605 48.552 160.838 48.6533 161.066 48.7668C162.742 49.6036 164.051 51.0311 164.743 52.7757C164.768 52.8338 164.788 52.8895 164.808 52.9477C165.119 53.818 165.272 54.7372 165.26 55.6616Z" fill="#F38421"/>
<path opacity="0.1" d="M101.689 45.1351C76.4286 35.4128 47.1224 49.8065 28.9513 74.8185C23.596 82.201 19.0748 90.9214 17.0768 100.781C14.6587 112.72 16.1046 125.571 19.4971 137.094C24.6135 154.47 34.3561 169.702 47.0401 178.038C59.724 186.375 75.3163 187.402 88.1548 179.468C95.3 175.051 101.772 167.953 109.619 166.775C121.632 164.972 131.795 177.312 142.666 184.261C150.108 189.018 158.293 191.337 166.392 193.585C175.575 196.137 185.293 198.614 194.176 194.641C201.534 191.349 207.505 183.838 211.464 175.054C215.423 166.269 217.536 156.258 218.916 146.221C219.781 139.921 220.374 133.464 219.672 127.137C218.941 120.528 216.813 114.276 214.039 108.69C207.777 96.0678 198.288 86.6504 188.03 79.9048C177.772 73.1591 166.693 68.8902 155.655 64.7872C135.813 57.3943 122.155 48.9 101.739 45.0936L101.689 45.1351Z" fill="#D5D5D5"/>
<path d="M76.7696 90.2391H65.4531V193.848H76.7696V90.2391Z" fill="url(#paint0_linear_755:2132)"/>
<path d="M89.1135 198.487H53.6221L66.2257 190.497H75.7402L89.1135 198.487Z" fill="url(#paint1_linear_755:2132)"/>
<path d="M15.5615 37.1473C15.5615 37.1473 63.4017 -10.2688 125.375 37.1473V78.1214C125.375 78.1214 76.77 107.504 15.564 78.1214L15.5615 37.1473Z" fill="url(#paint2_linear_755:2132)"/>
<path d="M19.0342 38.1894C19.0342 38.1894 63.8433 -6.23457 121.902 38.1894V76.5786C121.902 76.5786 76.3712 104.102 19.0342 76.5786V38.1894Z" fill="url(#paint3_linear_755:2132)"/>
<path d="M83.9675 60.8591H56.7085V84.055H83.9675V60.8591Z" fill="url(#paint4_linear_755:2132)"/>
<path d="M81.6534 62.8269H59.0229V82.0847H81.6534V62.8269Z" fill="url(#paint5_linear_755:2132)"/>
<g opacity="0.1">
<path opacity="0.1" d="M79.8791 119.407L71.2807 104.56L63.654 118.886L57.0367 103.872L50.1519 119.159L49.9121 119.063C52.6883 110.939 49.9349 87.9096 49.9121 87.6769L49.8062 86.8145L57.0443 103.237L63.0785 89.8319L71.2883 104.013L78.7964 89.89L85.1563 104.436L91.3294 87.8009L92.8739 87.4923L92.8386 87.6795C92.7932 87.9172 88.576 110.19 90.9735 117.742L91.5439 119.047L91.3168 119.166C91.0701 118.745 90.8736 118.296 90.7313 117.828L85.179 105.124L79.8791 119.407ZM71.4221 104.284L79.8261 118.805L85.0276 104.79L78.7737 90.4869L71.4221 104.284ZM57.1679 103.548L63.654 118.296L71.1192 104.289L63.0912 90.3959L57.1679 103.548ZM50.2478 88.4838C50.6869 92.4497 52.3955 109.368 50.5885 117.532L56.8979 103.548L50.2478 88.4838ZM85.3077 104.785L90.3729 116.369C88.8334 108.124 92.1395 90.0367 92.5534 87.8262L91.5262 88.031L85.3077 104.785Z" fill="url(#paint6_linear_755:2132)"/>
</g>
<g opacity="0.1">
<path opacity="0.1" d="M57.4757 119.439L51.0957 103.432L51.3355 103.336L57.4884 118.764L63.6539 104.663L55.434 89.5284L55.6586 89.4044L63.7826 104.365L69.9431 90.2821H70.0188L88.3109 88.5496L71.3664 118.858L63.8129 104.947L57.4757 119.439ZM63.9441 104.651L71.369 118.324L87.8516 88.8455L70.1248 90.5249L63.9441 104.651Z" fill="url(#paint7_linear_755:2132)"/>
</g>
<g opacity="0.1">
<path opacity="0.1" d="M84.7576 118.645L84.6264 118.392L69.4536 89.0099L69.6833 88.891L84.7248 118.018L90.378 103.338L90.6178 103.432L84.7576 118.645Z" fill="url(#paint8_linear_755:2132)"/>
</g>
<path d="M70.8543 83.7971C58.7807 83.7971 48.9961 85.4133 48.9961 87.4064C48.9961 89.3994 58.7832 91.0156 70.8543 91.0156C82.9253 91.0156 92.7124 89.3994 92.7124 87.4064C92.7124 85.4133 82.9253 83.7971 70.8543 83.7971ZM70.8543 89.4677C59.775 89.4677 50.7955 88.4282 50.7955 87.1484C50.7955 85.8686 59.775 84.8316 70.8543 84.8316C81.9335 84.8316 90.9105 85.8661 90.9105 87.1484C90.9105 88.4307 81.931 89.4677 70.8543 89.4677Z" fill="url(#paint9_linear_755:2132)"/>
<g opacity="0.2">
<path opacity="0.2" d="M70.8543 83.7971C58.7807 83.7971 48.9961 85.4133 48.9961 87.4064C48.9961 89.3994 58.7832 91.0156 70.8543 91.0156C82.9253 91.0156 92.7124 89.3994 92.7124 87.4064C92.7124 85.4133 82.9253 83.7971 70.8543 83.7971ZM70.8543 89.4677C59.775 89.4677 50.7955 88.4282 50.7955 87.1484C50.7955 85.8686 59.775 84.8316 70.8543 84.8316C81.9335 84.8316 90.9105 85.8661 90.9105 87.1484C90.9105 88.4307 81.931 89.4677 70.8543 89.4677Z" fill="url(#paint10_linear_755:2132)"/>
</g>
<path d="M70.8543 83.0256C58.7807 83.0256 48.9961 84.6418 48.9961 86.6349C48.9961 88.628 58.7832 90.2442 70.8543 90.2442C82.9253 90.2442 92.7124 88.628 92.7124 86.6349C92.7124 84.6418 82.9253 83.0256 70.8543 83.0256ZM70.8543 88.6962C59.775 88.6962 50.7955 87.6567 50.7955 86.3769C50.7955 85.0971 59.7775 84.0576 70.8543 84.0576C81.931 84.0576 90.9105 85.0845 90.9105 86.3744C90.9105 87.6643 81.931 88.6937 70.8543 88.6937V88.6962Z" fill="url(#paint11_linear_755:2132)"/>
<path d="M76.6509 90.5577H65.5464V192.234H76.6509V90.5577Z" fill="#E8EAF1"/>
<path d="M88.7652 196.787H53.9375L66.3039 188.946H75.6417L88.7652 196.787Z" fill="#E8EAF1"/>
<path d="M16.5859 38.4549C16.5859 38.4549 63.5276 -8.08358 124.35 38.4549V78.6702C124.35 78.6702 76.6511 107.504 16.5859 78.6702V38.4549Z" fill="#E8EAF1"/>
<path d="M83.7175 61.7241H56.9658V84.4875H83.7175V61.7241Z" fill="white"/>
<path d="M81.4463 63.6565H59.2373V82.5552H81.4463V63.6565Z" fill="#F3F5F7"/>
<path opacity="0.1" d="M79.7051 119.181L71.2657 104.603L63.7676 118.668L57.274 103.935L50.5306 118.939L50.2959 118.845C53.0316 110.87 50.3186 88.2714 50.2959 88.0437L50.1924 87.1964L57.2967 103.313L63.22 90.1607L71.2758 104.072L78.6628 90.2113L84.904 104.486L90.961 88.1601L92.4753 87.8565L92.4399 88.0412C92.3945 88.2764 88.2555 110.132 90.6102 117.545L91.1705 118.825L90.9459 118.941C90.7035 118.528 90.5104 118.087 90.3704 117.629L84.9191 105.159L79.7051 119.181ZM71.407 104.34L79.6546 118.59L84.7576 104.838L78.6224 90.8006L71.407 104.34ZM57.4153 103.627L63.7903 118.094L71.1092 104.347L63.2225 90.7197L57.4153 103.627ZM50.6239 88.843C51.0555 92.733 52.7313 109.33 50.9571 117.35L57.1377 103.627L50.6239 88.843ZM85.0302 104.83L89.9995 116.194C88.4852 108.101 91.7307 90.3529 92.1396 88.1854L91.1301 88.3877L85.0302 104.83Z" fill="black"/>
<path opacity="0.1" d="M57.718 119.214L51.4565 103.505L51.6912 103.411L57.7306 118.559L63.7876 104.714L55.7116 89.8622L55.9337 89.7408L63.9062 104.411L69.9632 90.5907H70.0364L87.9878 88.891L71.3487 118.643L63.9365 104.985L57.718 119.214ZM64.0652 104.701L71.3512 118.119L87.5285 89.1895L70.1323 90.836L64.0652 104.701Z" fill="black"/>
<path opacity="0.1" d="M84.4925 118.435L84.3613 118.185L69.4712 89.3513L69.6958 89.235L84.4572 117.818L90.0069 103.412L90.2416 103.503L84.4925 118.435Z" fill="black"/>
<path d="M70.8464 84.2346C58.9999 84.2346 49.3945 85.8205 49.3945 87.7756C49.3945 89.7307 58.9999 91.3166 70.8464 91.3166C82.6928 91.3166 92.2982 89.7307 92.2982 87.7756C92.2982 85.8205 82.6928 84.2346 70.8464 84.2346ZM70.8464 89.799C59.9741 89.799 51.1612 88.7873 51.1612 87.5227C51.1612 86.258 59.9741 85.2463 70.8464 85.2463C81.7187 85.2463 90.5316 86.258 90.5316 87.5227C90.5316 88.7873 81.7187 89.799 70.8464 89.799Z" fill="#5F546F"/>
<path opacity="0.2" d="M70.8464 84.2346C58.9999 84.2346 49.3945 85.8205 49.3945 87.7756C49.3945 89.7307 58.9999 91.3166 70.8464 91.3166C82.6928 91.3166 92.2982 89.7307 92.2982 87.7756C92.2982 85.8205 82.6928 84.2346 70.8464 84.2346ZM70.8464 89.799C59.9741 89.799 51.1612 88.7873 51.1612 87.5227C51.1612 86.258 59.9741 85.2463 70.8464 85.2463C81.7187 85.2463 90.5316 86.258 90.5316 87.5227C90.5316 88.7873 81.7187 89.799 70.8464 89.799Z" fill="black"/>
<path d="M70.8464 83.4758C58.9999 83.4758 49.3945 85.0617 49.3945 87.0168C49.3945 88.9719 58.9999 90.5578 70.8464 90.5578C82.6928 90.5578 92.2982 88.9719 92.2982 87.0168C92.2982 85.0617 82.6928 83.4758 70.8464 83.4758ZM70.8464 89.0402C59.9741 89.0402 51.1612 88.0285 51.1612 86.7639C51.1612 85.4992 59.9741 84.4875 70.8464 84.4875C81.7187 84.4875 90.5316 85.4992 90.5316 86.7639C90.5316 88.0285 81.7187 89.0402 70.8464 89.0402Z" fill="#5F546F"/>
<path d="M188.832 148.569C187.065 148.316 183.799 145.534 183.799 145.534C183.563 145.179 183.239 144.891 182.859 144.698C182.48 144.504 182.057 144.412 181.632 144.429L178.389 139.858C177.131 137.693 175.64 135.674 173.942 133.836C173.664 133.527 173.377 133.228 173.081 132.938C172.206 132.067 171.266 131.263 170.27 130.535C169.614 130.045 168.995 129.508 168.417 128.927C167.883 128.394 167.378 127.833 166.903 127.247L164.647 124.081L164.495 123.866C164.553 123.556 164.568 123.241 164.541 122.927C164.541 122.854 164.526 122.781 164.515 122.707L155.203 111.735L152.427 106.06C152.394 106.087 152.283 106.181 152.109 106.313L152.058 106.168V106.103V105.625C152.044 101.696 153.017 97.8271 154.887 94.3745C155.516 93.2154 155.844 91.9172 155.844 90.5983C155.844 90.492 155.844 90.3858 155.844 90.2796L155.796 90.2265C155.708 90.1278 155.506 89.9002 155.246 89.5638C155.279 89.498 155.314 89.4297 155.347 89.3665C156.503 87.2369 158.11 86.8727 158.11 86.8727C163.521 86.1139 167.423 82.4591 167.423 82.4591C171.461 80.1827 170.704 78.1593 170.704 78.1593L167.054 69.3322L164.783 64.6657L164.155 62.5209C163.949 61.0943 163.658 59.6813 163.284 58.2894C162.746 56.2357 160.069 55.6514 158.776 57.3334C158.746 57.3738 158.713 57.4168 158.683 57.4624C158.111 58.291 157.868 59.3036 158.001 60.3023C158.135 61.301 158.635 62.2139 159.405 62.8623C160.667 63.9398 161.765 65.0451 161.765 65.0451C164.036 65.6749 165.55 77.4031 165.55 77.4031L164.036 78.4148C162.875 78.4752 161.739 78.776 160.699 79.2984C159.66 79.8208 158.739 80.5534 157.997 81.4499H153.247C153.247 81.4297 153.26 81.4094 153.267 81.3867L152.48 81.2096L150.208 80.7038L149.368 80.5141L149.355 80.5672L149.118 80.5141V80.547C148.799 80.0404 148.513 79.5141 148.26 78.9712C148.328 78.9815 148.397 78.9815 148.464 78.9712C148.482 78.9333 148.497 78.8954 148.51 78.8574H148.591C148.941 78.0986 148.639 77.1502 148.977 76.3762C149.159 76.0497 149.362 75.7346 149.582 75.4328C150.087 74.5602 150.027 73.4675 149.878 72.466C149.716 71.3885 149.469 70.2883 148.851 69.3904C148.232 68.4925 147.165 67.8349 146.074 67.9765C145.216 68.0903 144.464 68.6796 143.601 68.7353C142.99 68.7707 142.405 68.5304 141.835 68.3433C141.21 68.1417 140.569 67.9952 139.919 67.9057C139.487 67.845 138.98 67.8374 138.69 68.1586L138.665 68.1915C138.628 68.2195 138.594 68.2508 138.564 68.2851C138.45 68.4277 138.364 68.5908 138.311 68.7656L137.754 70.306C137.725 70.3583 137.71 70.417 137.71 70.4767C137.71 70.5364 137.725 70.5951 137.754 70.6474C137.804 70.7107 137.892 70.7284 137.961 70.7714C138.402 71.0572 137.809 71.7628 138.175 72.1093C138.395 72.3167 138.864 72.3395 139.328 72.337C138.906 73.0042 138.65 73.7636 138.583 74.5509C138.515 75.3382 138.638 76.1302 138.941 76.8598C139.244 77.5894 139.718 78.2351 140.323 78.7422C140.927 79.2493 141.645 79.6029 142.415 79.773C142.415 79.8565 142.415 79.9399 142.415 80.0259C142.427 80.6929 142.375 81.3596 142.259 82.0165L141.89 82.0493C141.277 82.0822 140.038 82.1303 138.955 82.0797C138.592 82.0653 138.231 82.0307 137.872 81.976C137.872 81.976 137.829 82.4363 137.746 83.142L137.494 83.2128C135.14 83.8906 133.096 85.3701 131.714 87.3962L126.051 90.6843C126.051 90.6843 123.527 90.0545 116.236 96.3599L110.951 99.1421C110.951 99.1421 102.878 101.525 104.387 103.917C105.896 106.31 113.447 101.019 113.447 101.019L116.476 99.6328L125.662 95.586C125.662 95.586 128.691 93.5626 130.947 92.8038C133.203 92.045 135.477 89.7687 135.477 89.7687L136.045 89.7383L136.297 89.7231C136.26 89.7911 136.219 89.857 136.174 89.9204C136.151 89.9558 136.126 89.9887 136.101 90.0191V110.321L136.06 110.885H136.078L135.472 119.144C135.472 119.144 135.598 122.937 135.094 125.07C134.589 127.202 135.472 135.915 135.472 135.915C135.472 135.915 135.803 135.915 136.34 135.877L136.325 136.13L136.103 139.699C136.103 139.699 135.679 141.075 138.122 141.791C138.682 141.953 139.214 142.198 139.702 142.516L142.518 144.365L145.413 146.136L145.999 147.368L146.027 147.428L145.411 147.051C145.411 147.051 144.906 148.316 146.544 149.953C147.157 150.502 147.636 151.187 147.942 151.952C148.249 152.718 148.375 153.544 148.31 154.366C148.31 154.366 148.563 157.401 150.077 156.642C150.077 156.642 152.467 156.137 152.348 151.976C152.348 151.976 151.395 148.511 152.505 147.046C152.535 147.006 152.567 146.967 152.601 146.93C153.863 145.544 152.222 143.389 152.222 143.389C152.222 143.389 149.307 142.21 149.143 144.168L149.022 144.115C148.497 143.862 147.556 143.247 146.559 141.75C146.559 141.75 144.924 137.589 142.407 137.21L142.829 134.815L142.877 134.539C143.743 134.129 144.444 133.601 144.797 132.92L144.813 132.89V132.877V132.86V132.842V132.824L144.825 132.799V132.779L144.838 132.751L144.853 132.721V132.695L144.871 132.66L144.919 132.635L144.936 132.597L144.951 132.564L144.972 132.521L144.989 132.485L145.009 132.442L145.032 132.397L145.05 132.361L145.075 132.308L145.093 132.273L145.201 132.038L145.216 132.007L145.247 131.942L145.269 131.894L145.302 131.82L145.322 131.777L145.36 131.691L145.375 131.656L145.416 131.567L145.436 131.524L145.476 131.433L145.494 131.393L145.537 131.297L145.555 131.259L145.6 131.158L145.615 131.12L145.661 131.013L145.676 130.978L145.726 130.864V130.844C146.531 128.967 147.543 126.268 147.493 124.67C147.499 124.543 147.499 124.415 147.493 124.288H147.463V124.263C147.463 124.21 147.442 124.159 147.427 124.111L154.221 125.629L158.259 130.042H158.277H158.292H158.31H158.33H158.35L158.375 130.03H158.398L158.431 130.014L158.456 130.002L158.491 129.984L158.522 129.969L158.564 129.946L158.592 129.931L158.64 129.906L158.67 129.888L158.721 129.863L158.756 129.842L158.812 129.812L158.847 129.794L158.905 129.761L158.946 129.739L159.009 129.703L159.052 129.6L159.122 129.559L159.16 129.539L159.233 129.498L159.276 129.473L159.352 129.43L159.392 129.405L159.473 129.357L159.516 129.331L159.599 129.281L159.64 129.256L159.728 129.202H159.743L159.884 129.367L161.651 131.421C163.418 132.179 167.44 135.961 167.44 135.961C167.905 137.076 169.871 138.669 170.875 139.433C171.162 139.646 171.467 139.834 171.786 139.995C172.337 140.281 173.111 140.961 173.821 141.649C174.746 142.566 175.739 143.411 176.791 144.178C177.764 144.922 178.629 145.797 179.363 146.778L179.448 146.89C178.848 148.913 182.285 150.969 182.285 150.969C183.547 150.716 187.444 154.257 187.444 154.257C187.444 154.257 191.093 157.158 192.602 154.004C194.111 150.85 188.832 148.569 188.832 148.569ZM182.164 145.19L181.659 144.474C181.796 144.539 181.914 144.638 182.001 144.762C182.089 144.886 182.142 145.031 182.156 145.182L182.164 145.19Z" fill="url(#paint12_linear_755:2132)"/>
<path d="M150.781 83.276C150.781 83.276 138.049 90.7095 140.769 86.4957C141.946 84.721 142.562 82.632 142.536 80.5014C142.536 79.8058 142.442 79.1133 142.258 78.4425L147.573 75.9639C147.481 76.6935 147.547 77.4344 147.765 78.1365C148.51 80.772 150.781 83.276 150.781 83.276Z" fill="#DB8B8B"/>
<path opacity="0.1" d="M147.758 78.1391C147.253 79.0421 146.473 79.7592 145.532 80.1849C144.591 80.6106 143.538 80.7224 142.529 80.5039C142.528 79.8083 142.435 79.1159 142.251 78.4451L147.566 75.9664C147.474 76.6961 147.539 77.437 147.758 78.1391Z" fill="black"/>
<path d="M143.551 80.3648C146.213 80.3648 148.371 78.2019 148.371 75.5339C148.371 72.8659 146.213 70.703 143.551 70.703C140.889 70.703 138.73 72.8659 138.73 75.5339C138.73 78.2019 140.889 80.3648 143.551 80.3648Z" fill="#DB8B8B"/>
<path opacity="0.1" d="M140.469 72.9643C140.935 73.0599 141.346 73.3316 141.617 73.723C141.935 74.2289 141.928 74.9219 142.375 75.3165C142.712 75.5662 143.133 75.6733 143.548 75.6149C143.958 75.5551 144.374 75.5407 144.787 75.5719C145.456 75.6807 146.004 76.1764 146.375 76.743C146.712 77.3305 147.012 77.9387 147.273 78.564C147.38 78.8121 147.532 79.0378 147.722 79.2292C147.818 79.3242 147.935 79.3952 148.064 79.4365C148.192 79.4778 148.329 79.4882 148.462 79.467C148.808 78.7082 148.51 77.7876 148.84 77.0313C149.019 76.711 149.217 76.4018 149.433 76.1056C149.938 75.2482 149.87 74.1758 149.721 73.1919C149.562 72.1321 149.32 71.0521 148.712 70.172C148.103 69.2918 147.056 68.6544 145.996 68.7834C145.153 68.8947 144.414 69.4739 143.566 69.5245C142.968 69.5599 142.39 69.3246 141.819 69.14C141.206 68.942 140.577 68.7981 139.939 68.71C139.515 68.6519 139.018 68.6417 138.733 68.963C138.619 69.1022 138.534 69.2619 138.48 69.4334L137.933 70.951C137.904 71.0025 137.89 71.0603 137.89 71.1192C137.89 71.178 137.904 71.2358 137.933 71.2874C137.983 71.3481 138.069 71.3658 138.135 71.4113C138.569 71.692 137.986 72.3851 138.344 72.7265C138.702 73.068 139.967 72.8454 140.469 72.9643Z" fill="black"/>
<path d="M140.593 72.8402C141.059 72.9359 141.47 73.2076 141.741 73.599C142.059 74.1049 142.052 74.7979 142.499 75.1925C142.836 75.4421 143.257 75.5493 143.672 75.4909C144.082 75.4311 144.498 75.4167 144.911 75.4479C145.58 75.5567 146.128 76.0524 146.499 76.619C146.836 77.2065 147.136 77.8147 147.397 78.44C147.504 78.6881 147.656 78.9137 147.846 79.1052C147.942 79.2001 148.059 79.2711 148.188 79.3124C148.316 79.3537 148.453 79.3642 148.586 79.343C148.932 78.5842 148.634 77.6635 148.964 76.9073C149.143 76.587 149.341 76.2778 149.557 75.9816C150.062 75.1242 149.994 74.0517 149.845 73.0679C149.686 72.0081 149.444 70.9281 148.836 70.0479C148.227 69.1677 147.18 68.5304 146.12 68.6594C145.277 68.7707 144.538 69.3499 143.69 69.4004C143.092 69.4358 142.514 69.2006 141.943 69.016C141.33 68.818 140.701 68.6741 140.063 68.586C139.639 68.5278 139.142 68.5177 138.857 68.8389C138.743 68.9782 138.658 69.1379 138.604 69.3094L138.057 70.8269C138.028 70.8785 138.014 70.9363 138.014 70.9951C138.014 71.054 138.028 71.1118 138.057 71.1633C138.107 71.224 138.193 71.2417 138.259 71.2873C138.693 71.568 138.11 72.261 138.468 72.6025C138.827 72.9439 140.091 72.7214 140.593 72.8402Z" fill="#472727"/>
<path d="M167.097 82.9043C167.097 82.9043 163.266 86.4959 157.951 87.2395C157.951 87.2395 156.371 87.5986 155.236 89.6903C154.822 90.4765 154.528 91.3206 154.365 92.1943L148.661 82.5097L148.308 81.9103H157.825C158.556 81.0312 159.46 80.3134 160.481 79.8019C161.503 79.2904 162.618 78.9964 163.758 78.9384L165.242 77.9469C165.242 77.9469 163.758 66.4261 161.535 65.8065C161.535 65.8065 160.45 64.7189 159.216 63.6616C158.458 63.0243 157.965 62.1262 157.834 61.1436C157.703 60.161 157.943 59.1648 158.507 58.3502C158.537 58.3072 158.567 58.2642 158.6 58.2237C159.862 56.5721 162.499 57.1463 163.029 59.1646C163.397 60.5356 163.683 61.9275 163.885 63.3328L164.503 65.4397L166.729 70.0228L170.313 78.6931C170.313 78.6931 171.052 80.676 167.097 82.9043Z" fill="#DB8B8B"/>
<path d="M138.667 83.3999L137.925 89.976L136.257 90.0696L135.699 90.0999C135.699 90.0999 133.473 92.3307 131.25 93.0718C129.027 93.8129 126.059 95.7983 126.059 95.7983L117.036 99.7541L114.071 101.117C114.071 101.117 106.654 106.33 105.17 103.965C103.686 101.6 111.605 99.2483 111.605 99.2483L116.797 96.5217C123.966 90.3276 126.437 90.9573 126.437 90.9573L131.989 87.7376C133.346 85.7472 135.354 84.2937 137.665 83.6275C137.993 83.5271 138.328 83.4511 138.667 83.3999Z" fill="#DB8B8B"/>
<path opacity="0.1" d="M155.236 89.6903C154.822 90.4765 154.529 91.3206 154.365 92.1943L148.662 82.5097C148.798 82.3208 148.917 82.1202 149.017 81.9103C149.163 81.6136 149.278 81.3025 149.361 80.9821L150.186 81.1692L152.419 81.6751L153.194 81.8496C153.194 81.8698 153.179 81.8901 153.174 81.9103C152.134 84.9707 154.095 88.1753 155.236 89.6903Z" fill="black"/>
<path opacity="0.1" d="M138.667 83.3999L137.925 89.976L136.257 90.0696C136.966 88.8049 137.448 85.4562 137.668 83.6377C137.994 83.534 138.328 83.4545 138.667 83.3999Z" fill="black"/>
<path d="M154.786 94.4857C152.932 97.9094 151.977 101.749 152.01 105.645V106.13V106.194C152.01 106.194 153.37 109.909 152.01 109.909C150.65 109.909 150.774 111.768 149.045 112.14C147.316 112.512 141.256 115.112 139.404 113.999C137.552 112.886 136.315 110.531 136.315 110.531V90.3377C136.34 90.3074 136.365 90.2745 136.388 90.2391C137.456 88.7215 138.046 82.3984 138.046 82.3984C138.399 82.4527 138.755 82.4874 139.111 82.5021C140.174 82.5527 141.383 82.5021 141.993 82.4717L142.372 82.449C143.439 83.2861 144.896 83.4075 145.617 83.4075C145.871 83.4085 146.124 83.4271 146.375 83.4632C148.462 83.7566 149.098 80.9769 149.098 80.9769L149.923 81.1641L152.157 81.6699L152.931 81.8445C151.541 85.7926 155.203 90.014 155.665 90.5249L155.712 90.578C155.752 91.9395 155.432 93.2874 154.786 94.4857Z" fill="#F38421"/>
<path opacity="0.3" d="M139.114 82.5122C139.114 84.1537 138.723 89.5942 136.32 90.3808V90.3378C136.346 90.3074 136.371 90.2746 136.393 90.2392C137.461 88.7216 138.052 82.3984 138.052 82.3984C138.403 82.4561 138.758 82.4941 139.114 82.5122Z" fill="white"/>
<path opacity="0.3" d="M155.677 90.5325C151.155 90.2998 151.69 84.3712 152.169 81.6801L152.944 81.8546C151.553 85.8002 155.213 90.0216 155.677 90.5325Z" fill="white"/>
<g opacity="0.1">
<path opacity="0.1" d="M155.725 90.7095C155.724 90.6967 155.718 90.6847 155.71 90.6752C155.701 90.6656 155.69 90.659 155.677 90.6564C154.668 90.4035 155.788 90.7703 154.668 90.4035C154.625 90.3883 154.728 90.2189 154.728 90.2189C154.762 91.579 154.439 92.9241 153.789 94.119C151.935 97.5427 150.98 101.383 151.013 105.278V105.764V105.824C151.013 105.824 152.374 109.54 151.013 109.54C149.653 109.54 149.777 111.399 148.048 111.771C146.463 112.112 141.251 114.32 138.962 113.832C139.104 113.936 139.248 114.034 139.396 114.123C141.251 115.238 147.308 112.636 149.037 112.264C150.766 111.892 150.645 110.033 152.003 110.033C153.36 110.033 152.003 106.318 152.003 106.318V106.254V105.769C151.969 101.873 152.924 98.0334 154.779 94.6097C155.43 93.4155 155.757 92.0703 155.725 90.7095Z" fill="black"/>
<path opacity="0.1" d="M142.672 82.712C142.614 82.6716 142.553 82.6286 142.498 82.5856H142.367C142.468 82.6362 142.571 82.6741 142.672 82.712Z" fill="black"/>
</g>
<path d="M181.682 144.719L180.201 148.063C179.778 147.366 179.314 146.695 178.813 146.052C178.093 145.089 177.244 144.23 176.289 143.5C175.256 142.747 174.28 141.917 173.371 141.017C172.675 140.341 171.913 139.671 171.373 139.39C171.059 139.232 170.759 139.048 170.477 138.839C169.492 138.08 167.559 136.525 167.102 135.429C167.102 135.429 163.148 131.714 161.416 130.97L159.69 128.947L157.707 126.628L162.774 121.549L164.266 123.641L166.484 126.752C167.488 128.001 168.636 129.127 169.904 130.105C171.167 131.024 172.334 132.069 173.387 133.224C175.046 135.032 176.501 137.018 177.727 139.145L180.915 143.634L180.938 143.67L181.442 144.375L181.682 144.719Z" fill="#DB8B8B"/>
<path d="M150.287 145.091L148.308 149.798L146.703 148.063L146.042 146.672L145.466 145.461L142.622 143.725L139.846 141.909C139.366 141.596 138.843 141.356 138.294 141.196C135.894 140.493 136.307 139.142 136.307 139.142L136.527 135.637L136.678 133.196L143.24 132.453L142.912 134.312L142.498 136.664C144.972 137.036 146.577 141.123 146.577 141.123C147.553 142.592 148.48 143.202 148.997 143.445C149.132 143.513 149.274 143.565 149.421 143.599L150.287 145.091Z" fill="#DB8B8B"/>
<path opacity="0.1" d="M180.937 143.672L180.879 143.639H180.915L180.937 143.672Z" fill="black"/>
<path opacity="0.1" d="M181.682 144.719L180.201 148.063C179.778 147.366 179.314 146.695 178.812 146.052C179.04 146.27 180.309 147.428 180.715 146.371C180.871 145.94 181.051 145.518 181.253 145.106C181.378 144.887 181.442 144.638 181.437 144.386L181.682 144.719Z" fill="black"/>
<path opacity="0.1" d="M181.561 144.499L181.056 143.794L181.034 143.758L177.846 139.269C176.617 137.143 175.159 135.159 173.498 133.353C172.445 132.198 171.278 131.153 170.015 130.234C168.747 129.256 167.599 128.13 166.595 126.881L164.384 123.782L162.893 121.691L162.676 121.908L164.011 123.782L166.229 126.893C167.234 128.139 168.383 129.262 169.651 130.237C170.915 131.155 172.082 132.2 173.134 133.356C174.793 135.161 176.249 137.144 177.475 139.269L180.668 143.763L180.69 143.799L181.195 144.505L181.447 144.848L180.12 147.843C180.259 148.063 180.337 148.192 180.337 148.192L181.821 144.848L181.561 144.499Z" fill="black"/>
<path opacity="0.1" d="M150.286 145.091L148.308 149.798L146.703 148.063L146.042 146.672L147.939 147.937C149.804 146.768 149.085 143.781 148.999 143.447C149.134 143.515 149.276 143.567 149.423 143.602L150.286 145.091Z" fill="black"/>
<path d="M149.113 143.543C149.113 143.543 150.039 146.831 148.063 148.066L145.466 146.331C145.466 146.331 144.961 147.57 146.579 149.181C147.181 149.722 147.65 150.394 147.95 151.146C148.251 151.898 148.374 152.709 148.31 153.516C148.31 153.516 148.563 156.488 150.042 155.747C150.042 155.747 152.391 155.241 152.268 151.164C152.268 151.164 151.331 147.762 152.422 146.323C152.452 146.284 152.483 146.246 152.515 146.209C153.752 144.846 152.144 142.742 152.144 142.742C152.144 142.742 149.237 141.563 149.113 143.543Z" fill="#535461"/>
<path opacity="0.1" d="M152.018 109.912C150.658 109.912 150.781 111.771 149.053 112.143C147.324 112.514 141.264 115.114 139.412 114.002C137.559 112.889 136.323 110.534 136.323 110.534V110.281C139.412 111.892 143.245 110.281 143.245 110.281C145.976 110.807 150.673 107.218 152.02 106.128V106.191C152.02 106.191 153.376 109.912 152.018 109.912Z" fill="black"/>
<path opacity="0.1" d="M136.689 133.199L143.25 132.455L142.922 134.314C140.891 135.26 137.966 135.551 136.547 135.639L136.689 133.199Z" fill="black"/>
<path opacity="0.1" d="M164.26 123.646C163.95 125.922 161.411 127.877 159.685 128.957L157.701 126.638L162.769 121.559L164.26 123.646Z" fill="black"/>
<path d="M143.24 110.529C143.24 110.529 139.409 112.14 136.318 110.529L135.699 118.954C135.699 118.954 135.823 122.669 135.328 124.771C134.834 126.873 135.699 135.424 135.699 135.424C135.699 135.424 143.364 135.301 144.846 132.453C144.846 132.453 148.058 126.011 147.442 123.782L154.118 125.269L158.075 129.6C158.075 129.6 164.874 126.38 164.256 122.414L155.107 111.642L152.389 106.077C152.389 106.077 146.456 111.149 143.24 110.529Z" fill="#00448B"/>
<path opacity="0.8" d="M158.075 129.6L154.12 125.264L147.442 123.782C147.457 123.838 147.47 123.896 147.483 123.957C147.503 124.075 147.515 124.195 147.518 124.316C147.621 126.893 144.848 132.455 144.848 132.455C143.364 135.306 135.702 135.427 135.702 135.427C135.702 135.427 134.824 126.883 135.328 124.776C135.833 122.669 135.699 118.959 135.699 118.959L136.295 110.848L136.318 110.536C137.181 110.972 138.128 111.214 139.094 111.245C140.462 111.284 141.824 111.062 143.109 110.59L143.24 110.536C143.313 110.55 143.387 110.561 143.462 110.569C146.117 110.863 150.375 107.691 151.856 106.51C152.192 106.242 152.386 106.077 152.386 106.077L155.107 111.642L164.253 122.419C164.273 122.543 164.284 122.668 164.288 122.793C164.447 126.587 158.075 129.6 158.075 129.6Z" fill="#2B2A29"/>
<path opacity="0.3" d="M149.936 81.1717C147.182 86.1569 143.122 83.3974 141.996 82.4819L142.375 82.4591C143.442 83.2963 144.898 83.4177 145.62 83.4177C145.874 83.4186 146.127 83.4372 146.377 83.4733C148.464 83.7667 149.1 80.9871 149.1 80.9871L149.936 81.1717Z" fill="white"/>
<path d="M181.008 143.763C181.432 143.74 181.854 143.827 182.233 144.017C182.612 144.207 182.936 144.492 183.171 144.846C183.171 144.846 186.381 147.557 188.11 147.81C188.11 147.81 193.301 150.041 191.817 153.137C190.333 156.233 186.75 153.39 186.75 153.39C186.75 153.39 182.919 149.922 181.682 150.17C181.682 150.17 178.283 148.126 178.906 146.143C178.906 146.143 180.395 147.661 180.844 146.495C180.999 146.064 181.178 145.642 181.379 145.23C181.619 144.755 181.743 144.135 181.008 143.763Z" fill="#535461"/>
<path opacity="0.1" d="M142.428 110.559C141.135 110.936 138.536 111.439 136.32 110.284L136.28 110.837C138.968 111.816 141.941 110.749 142.428 110.559Z" fill="black"/>
<path opacity="0.1" d="M145.237 110.124C144.593 110.333 143.91 110.391 143.241 110.294C143.241 110.294 142.968 110.407 142.514 110.547C143.304 110.681 144.253 110.486 145.237 110.124Z" fill="black"/>
<path opacity="0.1" d="M164.291 122.796C164.172 126.471 158.075 129.359 158.075 129.359L157.989 129.266C159.678 128.337 164.013 125.624 163.514 122.421L154.365 111.642L151.856 106.5C152.192 106.232 152.386 106.067 152.386 106.067L155.107 111.632L164.253 122.409C164.274 122.537 164.287 122.666 164.291 122.796Z" fill="black"/>
<path opacity="0.1" d="M146.703 123.782C147.321 126.013 144.106 132.453 144.106 132.453C143.667 133.295 142.69 133.899 141.529 134.332C143.003 133.892 144.318 133.221 144.848 132.205C144.848 132.205 147.7 126.489 147.513 123.962L146.703 123.782Z" fill="black"/>
<path opacity="0.3" d="M144.601 91.6377C142.859 91.6377 141.449 93.6611 141.449 96.16C141.449 98.6589 142.859 100.682 144.601 100.682C146.342 100.682 147.753 98.6589 147.753 96.16C147.753 93.6611 146.342 91.6377 144.601 91.6377ZM144.601 98.8233C143.576 98.8233 142.743 97.632 142.743 96.16C142.743 94.688 143.574 93.4967 144.601 93.4967C145.628 93.4967 146.458 94.688 146.458 96.16C146.458 97.632 145.626 98.8233 144.601 98.8233Z" fill="white"/>
<path opacity="0.5" d="M164.778 52.9476C164.298 53.0903 163.8 53.1628 163.299 53.1626H163.213H163.016C162.895 53.1626 162.777 53.1475 162.663 53.1323C161.681 53.0147 160.741 52.6682 159.917 52.1206C157.714 49.8695 155.556 49.1006 154.39 48.8325L154.663 48.6985C155.808 48.9894 157.668 49.7102 159.604 51.5313C160.103 52.0045 160.692 52.3726 161.335 52.6138C161.778 52.7776 162.238 52.8888 162.706 52.9451C162.807 52.9451 162.905 52.9653 163.004 52.9729H163.203C163.715 52.987 164.225 52.9221 164.717 52.7807C164.735 52.8439 164.758 52.8996 164.778 52.9476Z" fill="white"/>
<path opacity="0.5" d="M165.247 56.0967C165.247 56.1751 165.247 56.2535 165.23 56.3294C164.584 55.9156 163.894 55.5762 163.173 55.3176L162.983 55.2494C161.264 54.6702 159.487 54.2768 157.684 54.0758C153.444 53.5345 151.329 54.0404 150.322 54.5209L150.362 54.268C151.452 53.7874 153.6 53.3499 157.709 53.8734C159.511 54.0751 161.287 54.4642 163.009 55.0344L163.198 55.1027C163.915 55.3585 164.602 55.6918 165.247 56.0967Z" fill="white"/>
<path opacity="0.1" d="M76.5249 188.314H65.4204V189.578H76.5249V188.314Z" fill="black"/>
<path opacity="0.3" d="M45.902 24.1721L19.9932 50.3424V56.5391L49.3948 23.0415L45.902 24.1721Z" fill="white"/>
<path opacity="0.3" d="M54.8436 21.6555L19.9932 65.8974V72.4558L63.5379 20.3555L54.8436 21.6555Z" fill="white"/>
<defs>
<linearGradient id="paint0_linear_755:2132" x1="71.1114" y1="193.848" x2="71.1114" y2="90.2391" gradientUnits="userSpaceOnUse">
<stop stop-color="#808080" stop-opacity="0.25"/>
<stop offset="0.54" stop-color="#808080" stop-opacity="0.12"/>
<stop offset="1" stop-color="#808080" stop-opacity="0.1"/>
</linearGradient>
<linearGradient id="paint1_linear_755:2132" x1="10090.2" y1="6460.67" x2="10090.2" y2="6208.27" gradientUnits="userSpaceOnUse">
<stop stop-color="#808080" stop-opacity="0.25"/>
<stop offset="0.54" stop-color="#808080" stop-opacity="0.12"/>
<stop offset="1" stop-color="#808080" stop-opacity="0.1"/>
</linearGradient>
<linearGradient id="paint2_linear_755:2132" x1="41305.4" y1="31344.6" x2="41305.4" y2="9039.4" gradientUnits="userSpaceOnUse">
<stop stop-color="#808080" stop-opacity="0.25"/>
<stop offset="0.54" stop-color="#808080" stop-opacity="0.12"/>
<stop offset="1" stop-color="#808080" stop-opacity="0.1"/>
</linearGradient>
<linearGradient id="paint3_linear_755:2132" x1="38697.4" y1="28708.7" x2="38697.4" y2="9132.93" gradientUnits="userSpaceOnUse">
<stop stop-color="#808080" stop-opacity="0.25"/>
<stop offset="0.54" stop-color="#808080" stop-opacity="0.12"/>
<stop offset="1" stop-color="#808080" stop-opacity="0.1"/>
</linearGradient>
<linearGradient id="paint4_linear_755:2132" x1="7654.06" y1="7769.55" x2="7654.06" y2="5642.25" gradientUnits="userSpaceOnUse">
<stop stop-color="#808080" stop-opacity="0.25"/>
<stop offset="0.54" stop-color="#808080" stop-opacity="0.12"/>
<stop offset="1" stop-color="#808080" stop-opacity="0.1"/>
</linearGradient>
<linearGradient id="paint5_linear_755:2132" x1="6366.36" y1="6312.76" x2="6366.36" y2="4846.47" gradientUnits="userSpaceOnUse">
<stop stop-color="#808080" stop-opacity="0.25"/>
<stop offset="0.54" stop-color="#808080" stop-opacity="0.12"/>
<stop offset="1" stop-color="#808080" stop-opacity="0.1"/>
</linearGradient>
<linearGradient id="paint6_linear_755:2132" x1="16391" y1="17318.3" x2="16391" y2="13118.8" gradientUnits="userSpaceOnUse">
<stop stop-color="#808080" stop-opacity="0.25"/>
<stop offset="0.54" stop-color="#808080" stop-opacity="0.12"/>
<stop offset="1" stop-color="#808080" stop-opacity="0.1"/>
</linearGradient>
<linearGradient id="paint7_linear_755:2132" x1="13931.6" y1="16424.1" x2="13931.6" y2="12650.5" gradientUnits="userSpaceOnUse">
<stop stop-color="#808080" stop-opacity="0.25"/>
<stop offset="0.54" stop-color="#808080" stop-opacity="0.12"/>
<stop offset="1" stop-color="#808080" stop-opacity="0.1"/>
</linearGradient>
<linearGradient id="paint8_linear_755:2132" x1="6781.24" y1="14046.3" x2="6781.24" y2="10546" gradientUnits="userSpaceOnUse">
<stop stop-color="#808080" stop-opacity="0.25"/>
<stop offset="0.54" stop-color="#808080" stop-opacity="0.12"/>
<stop offset="1" stop-color="#808080" stop-opacity="0.1"/>
</linearGradient>
<linearGradient id="paint9_linear_755:2132" x1="16553.2" y1="3089.88" x2="16553.2" y2="2883.94" gradientUnits="userSpaceOnUse">
<stop stop-color="#808080" stop-opacity="0.25"/>
<stop offset="0.54" stop-color="#808080" stop-opacity="0.12"/>
<stop offset="1" stop-color="#808080" stop-opacity="0.1"/>
</linearGradient>
<linearGradient id="paint10_linear_755:2132" x1="16553.2" y1="3089.88" x2="16553.2" y2="2883.94" gradientUnits="userSpaceOnUse">
<stop stop-color="#808080" stop-opacity="0.25"/>
<stop offset="0.54" stop-color="#808080" stop-opacity="0.12"/>
<stop offset="1" stop-color="#808080" stop-opacity="0.1"/>
</linearGradient>
<linearGradient id="paint11_linear_755:2132" x1="16553.2" y1="3067.09" x2="16553.2" y2="2861.15" gradientUnits="userSpaceOnUse">
<stop stop-color="#808080" stop-opacity="0.25"/>
<stop offset="0.54" stop-color="#808080" stop-opacity="0.12"/>
<stop offset="1" stop-color="#808080" stop-opacity="0.1"/>
</linearGradient>
<linearGradient id="paint12_linear_755:2132" x1="60875.4" y1="67971.3" x2="60875.4" y2="28124.6" gradientUnits="userSpaceOnUse">
<stop stop-color="#808080" stop-opacity="0.25"/>
<stop offset="0.54" stop-color="#808080" stop-opacity="0.12"/>
<stop offset="1" stop-color="#808080" stop-opacity="0.1"/>
</linearGradient>
</defs>
</svg>
